<?xml version="1.0" encoding="utf-8"?>
<!-- Generator: Adobe Illustrator 25.4.1, SVG Export Plug-In . SVG Version: 6.00 Build 0)  -->
<svg version="1.1" id="Layer_1" xmlns="http://www.w3.org/2000/svg" xmlns:xlink="http://www.w3.org/1999/xlink" x="0px" y="0px"
	 viewBox="0 0 2559.9 645.5" style="enable-background:new 0 0 2559.9 645.5;" xml:space="preserve">
<style type="text/css">
	.st0{fill:#CC3333;}
	.st1{fill:#143E5F;}
	.st2{fill:#7491AF;}
	.st3{fill:#201A84;}
	.st4{fill:#CCCCCC;}
	.st5{fill:#A9D3AC;}
	.st6{fill:#F2F2F2;}
	.st7{font-family:'Glass';}
	.st8{font-size:150.9px;}
</style>
<rect class="st0" width="2560" height="603"/>
<path class="st1" d="M3209,642.5c-0.8,0-1.5,0.7-1.5,1.5s0.7,1.5,1.5,1.5s1.5-0.7,1.5-1.5S3209.8,642.5,3209,642.5z"/>
<path class="st1" d="M873.2,189.8C873.2,189.7,873.2,189.7,873.2,189.8L873.2,189.8L873.2,189.8z"/>
<path class="st1" d="M874.3,190.6L874.3,190.6z"/>
<path class="st1" d="M876.4,188.7c-0.2-0.3-0.5-0.3-0.7-0.2c-0.2,0.2-0.3,0.5-0.2,0.7l0,0v0.1v0.1c0,0.1,0.1,0.2,0.1,0.3l0,0l0,0
	c0,0,0,0,0,0.1v0.1l0,0v0.1l0,0v0.1l0,0l0,0l0,0l0,0l0,0l-0.1,0.1l0,0l-0.1,0.1l-0.1,0.1l0,0h-0.1l-0.3,0.1h0.1h-0.1h-0.1
	c-0.1,0-0.2,0-0.3,0h-0.1h-0.1l-0.3-0.1l0,0l0,0l-0.1-0.1l-0.2-0.1l0,0l-0.1-0.1l0,0l0,0V190l0,0l-0.1-0.1l0,0v-0.1v-0.1
	c0,0,0,0,0-0.1v-0.1c0-0.3-0.3-0.6-0.6-0.6s-0.6,0.3-0.6,0.6l0,0c0,0.6,0.2,1.1,0.7,1.5c0.4,0.4,1,0.6,1.5,0.6c1,0.2,2-0.3,2.5-1.1
	C877,189.8,876.8,189.1,876.4,188.7z"/>
<path class="st1" d="M873.3,190.1L873.3,190.1L873.3,190.1L873.3,190.1L873.3,190.1z"/>
<path class="st1" d="M873.8,190.4C873.7,190.4,873.8,190.4,873.8,190.4z"/>
<path class="st1" d="M875.5,190.2L875.5,190.2L875.5,190.2L875.5,190.2z"/>
<path class="st1" d="M874.8,190.6"/>
<path class="st1" d="M875.6,189.8L875.6,189.8C875.6,189.8,875.6,189.9,875.6,189.8L875.6,189.8L875.6,189.8z"/>
<path class="st2" d="M887.9,190c0.2-0.2,0.2-0.6,0-0.8l-0.1-0.1c-0.5-0.3-0.9-0.7-1.3-1.2c-0.4-0.4-0.8-0.8-1.3-1.1
	c-1-0.8-2.1-1.4-3.3-2c-2.2-1-4.6-1.6-7.1-1.7c-2.4-0.2-4.9,0.2-7.1,1.1c-1.2,0.5-2.3,1-3.4,1.7l-1.4,0.8c-1.1,0.5-2.3,1-3.4,1.3
	c-0.3,0.1-0.5,0.4-0.4,0.7s0.4,0.5,0.7,0.4c0.2-0.1,0.5-0.2,0.7-0.2l0,0c2.5-0.6,4.7-2.2,7.1-3.2c1-0.4,2-0.8,3.1-1
	c1.3-0.2,2.6-0.3,3.9-0.1c2.5,0,4.9,0.6,7.2,1.6c1.2,0.6,2.3,1.3,3.2,2.2l0.1,0.1c-1.2-0.5-2.4-0.9-3.6-1.1
	c-1.2-0.3-2.5-0.5-3.7-0.7c-0.8,0-1.6,0-2.4,0.1c-0.8,0-1.5,0-2.3,0.1c-1.3,0.2-2.5,0.6-3.7,1.1h-0.1c-0.8,0.2-1.7,0.6-2.5,1
	c-0.8,0.3-1.7,0.7-2.5,1.1c-1,0.6-2.1,1.1-3.3,1.5h-0.3c-0.6,0.1-1.2,0.2-1.7,0.5c-0.2,0.1-0.3,0.2-0.3,0.4c0,0,0,0,0,0.1
	c-0.3,0.2-0.3,0.5-0.1,0.8c0.1,0.1,0.2,0.2,0.3,0.2c0,0.1,0,0.2,0.1,0.3v0.1c0.1,0.2,0.2,0.3,0.3,0.5c0.2,0.3,0.4,0.5,0.7,0.7
	c0.2,0.2,0.5,0.3,0.7,0.5l0.3,0.2l0.2,0.1c0.1,0.1,0.2,0.1,0.3,0.1s0.2,0,0.3,0c4.1,2.3,9,1.6,13.4,0.9c1.3-0.2,2.5-0.4,3.8-0.8
	c1-0.3,1.9-0.7,2.8-1.2c2.3-0.8,4.5-2,6.3-3.7c0.1-0.1,0.1-0.1,0.1-0.2C888.4,190.7,888.3,190.2,887.9,190
	C888.1,190,888,190,887.9,190z M870.8,191.9c0-0.1-0.1-0.2-0.1-0.2v-0.1c-0.2-0.2-0.3-0.5-0.4-0.7l-0.1-0.3l-0.1-0.3
	c-0.1-0.2-0.1-0.4-0.2-0.7l0,0c0.6-0.2,1.2-0.4,1.8-0.6c0,0.1,0,0.1,0,0.2c0,0.1,0,0.2,0,0.3s0,0.1,0,0.2c0,0.2,0.1,0.3,0.2,0.4
	c0.1,0.1,0.2,0.3,0.3,0.4c0.1,0.1,0.1,0.1,0.2,0.1l0,0l0.2,0.2c0.1,0.1,0.2,0.2,0.3,0.2c0.1,0.1,0.3,0.1,0.4,0.1
	c0.1,0,0.3-0.1,0.4-0.2c0.1-0.1,0.1-0.2,0.2-0.3c0-0.2,0-0.3-0.1-0.5s-0.2-0.4-0.3-0.6c0-0.1-0.1-0.2-0.1-0.3s0-0.1,0-0.2
	c0,0,0,0,0-0.1c0-0.2,0-0.3,0-0.5c0.5-0.1,1.1-0.1,1.6-0.1c0,0,0,0,0,0.1c0.1,0.2,0.3,0.4,0.4,0.7c0.1,0.2,0.1,0.4,0.2,0.6l0,0
	c0,0.1,0.1,0.3,0.2,0.4c0.1,0.1,0.2,0.1,0.3,0.2c0.1,0,0.3,0,0.4-0.1c0.1-0.1,0.2-0.2,0.3-0.4c0-0.2,0-0.4,0-0.6
	c0-0.2,0-0.4-0.1-0.6c0-0.1-0.1-0.2-0.1-0.3c0.6,0,1.2,0,1.8,0c0,0.1,0,0.2,0.1,0.3v0.1c0.1,0.2,0.1,0.3,0.1,0.5
	c0,0.3,0.1,0.5,0.1,0.8c0,0.2,0.2,0.3,0.3,0.4c0,0.5-0.2,1.1-0.5,1.5c-1,0.9-2.4,1.4-3.7,1.4c-1.4,0.1-2.7-0.3-3.9-1
	C870.8,192.2,870.8,192,870.8,191.9L870.8,191.9z M881.7,193.8c-0.8,0.4-1.7,0.7-2.6,1c-1.8,0.4-3.7,0.6-5.6,0.7
	c-2.6,0.2-5.3,0.2-7.9-0.2c-1.5-0.1-3-0.5-4.4-1.1c-0.2-0.1-0.3-0.3-0.5-0.4l-0.1-0.2l0,0c0.2-0.1,0.4-0.1,0.6-0.2
	c0.1-0.1,0.2-0.2,0.2-0.3l0.6-0.2l0.8-0.2c0.1,0,0.2-0.1,0.2-0.2c1-0.3,2-0.7,2.9-1.2c0.7-0.4,1.4-0.7,2.1-1.1
	c0,0.3,0.1,0.5,0.2,0.7c0.1,0.3,0.2,0.5,0.3,0.8c0.1,0.2,0.3,0.4,0.5,0.6c0,0,0,0,0,0.1c1,1.2,2.4,2,4,2.1c1.1,0.1,2.1,0,3.1-0.2
	c1.4-0.2,2.6-0.9,3.4-2.1c0.4-0.8,0.5-1.7,0.4-2.5c0-0.2,0.1-0.4,0.1-0.6c0-0.2,0-0.3,0-0.5h0.2c0.5,0,0.9,0.1,1.4,0.2
	c0.2,0.1,0.5,0.1,0.7,0.2c1.4,0.6,2.8,1.3,4.1,1.9c-0.6,0.4-1.3,0.8-1.9,1.1C883.6,192.7,882.7,193.2,881.7,193.8L881.7,193.8z"/>
<path class="st1" d="M886.4,194.3c-1.3,1.3-3.4,1.9-5.1,2.5c-2.2,0.8-4.4,1.4-6.7,1.8c-2.1,0.4-4.3,0.6-6.4,0.5
	c-2.2-0.2-4.4-0.5-6.6-0.9c-0.2-0.1-0.5-0.2-0.7-0.3c-0.1,0-0.1,0-0.2,0c-0.1,0-0.1,0-0.2,0.1c-0.1,0.1-0.2,0.2-0.2,0.3s0,0.2,0,0.3
	l0.1,0.1c0,0,0.1,0.1,0.2,0.1c-0.1,0.3,0.1,0.6,0.4,0.6l0,0c2.4,0.5,4.9,0.8,7.3,1c2.3,0,4.5-0.2,6.7-0.7c2.5-0.5,4.9-1.2,7.2-2.1
	c1.7-0.6,3.7-1.2,4.8-2.6c0.1-0.2,0.1-0.5-0.1-0.7C886.8,194.3,886.6,194.3,886.4,194.3z"/>
<path class="st1" d="M934.3,186.2L934.3,186.2C934.4,186.2,934.4,186.1,934.3,186.2L934.3,186.2L934.3,186.2z"/>
<path class="st1" d="M937.8,184.5c-0.1-0.2-0.5-0.3-0.7-0.2c-0.3,0.1-0.4,0.4-0.3,0.7c0,0.1,0.1,0.3,0.1,0.4s0,0.1,0,0.2
	c0,0,0,0,0,0.1l0,0c0,0.1,0,0.2,0,0.3l0,0c0,0.1,0,0.1,0,0.1l0,0l-0.1,0.1l0,0l-0.1,0.1l-0.1,0.1l0,0l0,0l-0.2,0.1l0,0h-0.1H936
	h-0.7h-0.2l-0.3-0.1h-0.1l-0.2-0.1l0,0c0,0,0,0-0.1-0.1l0,0l0,0l-0.1-0.1V186l0,0c0,0,0,0,0-0.1l0,0v0.1l0,0c0,0,0,0,0-0.1
	s0-0.1,0-0.2c0-0.4-0.3-0.7-0.6-0.7l0,0c-0.4,0-0.7,0.3-0.7,0.7c-0.1,1.2,1,2,2.2,2.2c1.1,0.2,2.2-0.3,2.8-1.3
	C938.3,185.9,938.2,185.1,937.8,184.5z"/>
<path class="st1" d="M936,186.7L936,186.7z"/>
<path class="st1" d="M934.5,186.4L934.5,186.4L934.5,186.4L934.5,186.4L934.5,186.4z"/>
<path class="st1" d="M936.5,186.4C936.6,186.4,936.6,186.4,936.5,186.4z"/>
<path class="st2" d="M934.3,186.4L934.3,186.4v0.1V186.4z"/>
<path class="st2" d="M948.7,185.7c-0.2,0.1-0.3,0.2-0.5,0.3l-0.7-0.6c-1.1-0.7-2.2-1.2-3.5-1.5c-1.2-0.4-2.5-0.6-3.8-0.5
	c-1.4,0.1-2.9,0.2-4.3,0.1c-1.3-0.1-2.5-0.1-3.8,0c-1.3,0.2-2.5,0.5-3.7,1c-0.3,0.2-0.7,0.3-1,0.6c-1.3,0.6-2.4,1.3-3.4,2.2
	c-0.4,0.3-0.7,0.6-1,1c-0.2,0.3-0.1,0.7,0.2,0.9c0.1,0,0.1,0.1,0.2,0.1c0.1,0.1,0.1,0.1,0.2,0.1h0.1c0.1,0.2,0.2,0.3,0.4,0.3l1,0.2
	l1.5,0.6c1.1,0.4,2.3,0.5,3.4,0.5c1.2,0,2.3,0.2,3.5,0.1c0.9,0,1.8-0.2,2.7-0.3h0.2c2.5-0.1,4.9-0.6,7.2-1.4h0.2
	c1.2-0.1,2.3-0.4,3.4-0.8c0.3-0.1,0.6-0.2,0.8-0.4c0.3,1,2,0.6,1.6-0.4l0,0c0.1-0.2,0-0.4-0.2-0.6l0.1-0.1
	C950.5,186.6,949.6,185.3,948.7,185.7z M941.2,187.2L941.2,187.2c0-0.2,0.1-0.3,0.1-0.5v-0.2c0.1-0.4,0.1-0.8,0-1.2
	c0.6,0,1.1,0.1,1.7,0.1c1.2,0.3,2.3,0.7,3.3,1.4l0.2,0.2c-0.9,0.2-1.8,0.5-2.6,0.9c-0.3,0.1-0.7,0.1-1,0.2c-0.7,0.1-1.5,0.2-2.2,0.4
	C941,188,941.1,187.6,941.2,187.2L941.2,187.2z M931,186v0.2c0-0.2,0-0.4,0-0.6l0,0c0-0.1,0-0.2,0-0.4c0.5-0.1,1.1-0.1,1.6-0.2
	c0,0.1,0,0.3,0.1,0.5c0,0.1,0,0.1,0,0.2c0,0.2,0,0.3,0,0.5c0.1,0.4,0.3,0.7,0.7,0.9c0.3,0.1,0.6-0.1,0.7-0.3
	c0.1-0.1,0.1-0.2,0.1-0.4l0,0l0,0v-0.1c0-0.1,0.1-0.2,0.1-0.3c0-0.2,0-0.3-0.1-0.5c0-0.1-0.1-0.3-0.1-0.4c0.4,0,0.7,0,1.1,0h0.3
	c0.5,0,0.9,0,1.4,0c0.8,0,1.6,0.1,2.3,0.1c0,0.1,0,0.2,0,0.2c0.1,0.2,0.1,0.5,0.2,0.8V186c0,0.2,0,0.4,0.1,0.5
	c0,0.2-0.1,0.5-0.1,0.7s0.1,0.3,0.2,0.4l0.1,0.1c-0.1,0.2-0.2,0.4-0.3,0.6c-1,0.9-2.7,0.7-3.9,0.9c-0.7,0.1-1.4,0.2-2.1,0.2
	c-0.6,0.1-1.2-0.1-1.8-0.3c-0.2-0.1-0.4-0.3-0.5-0.5c-0.1-0.4-0.1-0.7-0.3-1.1c0.1-0.1,0.2-0.3,0.2-0.5c0-0.1,0-0.2,0-0.3
	C931.1,186.4,931.1,186.2,931,186z M929.1,185.8c-0.1,0.5-0.1,0.9,0.1,1.4c0.1,0.3,0.2,0.5,0.3,0.8c0.2,0.6,0.5,1.1,0.9,1.6h-0.1
	c-0.8,0-1.6,0-2.4-0.2h-0.2l-0.8-0.2c-0.7-0.2-1.5-0.5-2.2-0.7c0.5-0.3,1-0.6,1.4-0.8C927,186.9,928.1,186.3,929.1,185.8
	L929.1,185.8z"/>
<path class="st3" d="M953.3,184.5c-2.6-1.4-5.2-2.7-8-3.7c-2.7-0.8-5.5-1.1-8.3-0.9c-2.7,0.1-5.4,0.8-7.9,2s-4.5,3.4-7.1,4.5
	c-0.7,0.3-0.4,1.5,0.3,1.2c2.3-1,4.2-2.6,6.3-3.9c2.5-1.5,5.3-2.3,8.1-2.4c2.8-0.2,5.6,0.1,8.3,0.9c1.4,0.4,2.7,1,3.9,1.7
	c1.2,0.8,2.5,1.4,3.8,1.8C953.5,185.7,953.9,184.8,953.3,184.5z"/>
<path class="st3" d="M953.9,191.7c-4.4,1.2-8.8-0.5-13.3-0.4c-1.1,0-2.2,0.2-3.4,0.4s-2.2,0.1-3.4,0.2c-1.1,0.1-2.2,0-3.2-0.1
	c-0.9-0.2-1.7-0.2-2.6,0c-0.9,0.2-0.5,1.6,0.4,1.3c1-0.1,2-0.1,2.9,0.1c1.1,0.1,2.2,0.1,3.3,0c2.3-0.1,4.6-0.7,7-0.7
	c2.3,0.1,4.6,0.4,6.8,0.8c2,0.3,4.2,0.6,6-0.5c0.3-0.2,0.4-0.6,0.2-0.9C954.4,191.7,954.1,191.6,953.9,191.7z"/>
<path class="st2" d="M925.5,217.8c-0.1-0.2-0.3-0.3-0.5-0.3c-0.9-2-2.1-3.8-3-5.8s-2-4.1-3-6.1c-0.5-1-1-2-1.5-3.1
	c-0.6-1-1.1-2.1-1.5-3.2c-0.1-0.3-0.4-0.5-0.7-0.4s-0.5,0.4-0.4,0.7c0.6,1.8,1.4,3.6,2.4,5.4c0.9,2,1.9,3.9,2.8,5.8s1.8,3.8,2.8,5.6
	c0.6,0.9,1,2,1.3,3.1c0.1,0.8-0.1,1.6-0.5,2.2l-0.2,0.1l-0.1,0.1c-0.1,0.1-0.3,0.2-0.4,0.2l0,0l0,0l-0.2,0.1l-0.2,0.1h-0.3
	c-0.2,0-0.4-0.1-0.6-0.2c-0.3-0.4-0.4-0.9-0.4-1.3c-0.4-0.4-0.8-0.7-1.4-0.8c-1.4-0.3-2.9-0.2-4.3,0.4l-0.3,0.1
	c0-0.3-0.3-0.4-0.6-0.4c-0.1,0-0.1,0-0.2,0.1c-1.5,1-2.8,2.3-3.6,3.9c-0.5,0.8-1.1,1.5-1.8,2.1c-1.5,0.8-3.3,0.8-4.8,0
	c-0.1,0-0.2-0.1-0.3-0.1c-0.2-0.5-0.5-1-0.9-1.5c0.1-0.2,0.1-0.3,0-0.5c-0.6-1.4-1.9-2.4-3.3-2.7l0,0c-0.1-0.3-0.3-0.4-0.6-0.4
	l-0.8,0.2c-1.4,0-2.8,0.2-4.1,0.5c-0.3,0.1-0.5,0.3-0.4,0.6c0,0.1,0,0.1,0.1,0.2l-0.6,0.3c-0.2,0.1-0.3,0.3-0.3,0.5
	c-1.7-2.1-0.4-5.3,0.2-7.5s1-4.4,1.3-6.6c0,0,0,0,0-0.1c0.3-1.3,0.6-2.7,0.8-4V205v-0.1c0.2-1.5,0.4-3,0.8-4.6
	c0.2-0.7-0.9-1-1.1-0.3c-0.4,1.6-0.6,3.2-0.8,4.8c-1,3.9-1.4,7.9-2.5,11.8c-0.7,2.4-1.5,5.7,0.6,7.7c0.2,0.2,0.5,0.2,0.7,0
	c0,0,0,0,0.1-0.1c0.2,0.2,0.5,0.2,0.7,0c0.5-0.3,1-0.6,1.6-0.9c0.1,0.1,0.3,0.1,0.4,0c0.2-0.1,0.4-0.2,0.6-0.3
	c0.9-0.2,1.9-0.2,2.8,0.2c0.8,0.4,1.5,0.9,2.1,1.6c0.6,0.8,1.2,1.7,1.7,2.5c0.2,0.3,0.6,0.3,0.8,0.2c0.9,0.4,2,0.6,3,0.5
	c0.1,0.1,0.3,0.1,0.4,0.1c3.2-0.4,4.2-3.6,6.2-5.8c0.2,0.2,0.6,0.2,0.8,0l0,0l0,0l0.1-0.1l0.3-0.2c0.2-0.1,0.4-0.2,0.7-0.3
	c0.6-0.2,1.2-0.4,1.8-0.5s1.2-0.1,1.8-0.1c0.4,0.1,0.8,0.2,1.2,0.5c0.2,0.1,0.3,0.3,0.3,0.6c-0.1,0.1-0.1,0.1-0.2,0.2
	c-0.2,0.3-0.1,0.7,0.2,0.9l0,0c0,0.3,0.3,0.5,0.5,0.4c0.1,0,0.2,0,0.2-0.1c0.3,0.1,0.7,0.2,1,0.3c0.7,0.1,1.3-0.2,1.8-0.6
	c1-0.8,1.5-2.1,1.5-3.3C926,219.1,925.8,218.5,925.5,217.8z"/>
<path class="st4" d="M1030.7,412.8c-0.9-8.1-2.7-16.1-5.4-23.9c-2.6-8-5.7-15.8-8-23.8s-2.8-15.8-2.7-24.1
	c0.1-7.9,0.2-15.9-2.2-23.5s-6.4-14.6-10.3-21.5c-1.9-3.5-4-6.9-5.1-10.8c-0.9-3.5-1.4-7.1-1.4-10.7c0-2,0-4,0-5.9
	c0.3-3.1,0.4-6.3,0.1-9.4c0.1-0.7,0.2-1.3,0.3-2c0-0.2-0.1-0.4-0.3-0.4l0,0c0.1-0.2,0.2-0.3,0.3-0.5c0.1-2.3,0.2-4.6,0.4-6.9
	c0.5-8.6,1.1-17.3,0.4-25.8c-0.7-8.1-3.9-15.4-6.3-23c-2.5-7.9-4.6-15.8-7.4-23.6s-5.6-15.9-8.8-23.7c-5.6-13.8-12.4-27.5-21.2-39.6
	c-4.4-5.9-9.3-11.4-14.7-16.5c-5.1-5-10.9-11-17.8-13.6c-6.4-2.4-12.9-0.1-19,2.1l0,0c-0.2-0.3-0.6-0.5-1-0.5
	c-1.2-0.1-2.5-0.2-3.7-0.3c-0.3,0-0.6,0.1-0.8,0.3c0,0-0.1,0.1-0.1,0.2c-20.6-3.1-39.6,9.8-51.2,26.3c-6.9,9.9-11,21.1-13.3,32.9
	c-1.3,6.6-2.1,13.2-3.3,19.8c-1.2,6.9-2.8,13.7-4.2,20.5c-1.4,6.7-2.5,13.4-3.2,20.2c-0.5,6.5-1.4,12.9-2.7,19.3
	c-2.7,12.6-9,24-12.7,36.3c-3.8,12.6-3.2,25.1-1.4,38c1.8,13.2,4.8,26.4,4.8,39.8c0,14-3.3,28-6.2,41.6c-1.4,6.5-2.3,13.2-2.7,19.9
	c-0.4,6.8-0.3,13.7-1.3,20.4c-0.9,6.2-3,12.1-4.8,18s-2.8,11.9-3.2,18c-0.7,11.6-2.5,23.5-0.3,35c1,5.2,3.2,10.1,6.5,14.3
	c3.3,4.3,7.3,7.9,10.7,12c3.8,4.6,6.2,10.2,10.1,14.7s9.5,7,14.7,9.8c4.6,2.5,9.5,6.4,15.1,6.1c6.1-0.3,9.9-4.7,14.7-7.7
	c4.5-2.8,10-2.1,14.5-4.7c2.2-1.3,3.9-3.1,5.1-5.3c1.4-2.6,3.1-5.1,5-7.3c3.3-3.5,6.6-8.5,7.1-13.5c0.4-4.2-1.7-7.9-3.9-11.3
	c-1.6-2.5-3.5-4.7-5-7.3c-1.5-2.8-2.9-5.8-3.9-8.8c-2.3-6-5-11.7-8.2-17.3c-3.5-5.8-6.1-12.1-8-18.6c-1.7-6.2-2.5-12.6-3.6-19
	c-1-5.7-2.3-11.5-2.2-17.4c0.2-5.2,1.8-10.2,3.9-15c1.8-4.1,4.5-8,6.2-12.2c0.5,0.8,1,1.6,1.5,2.4c-0.2,0.3-0.2,0.6-0.1,0.9
	c1.6,5.2,3.6,10.4,5.1,15.6c1.6,5.4,2.5,10.9,3,16.4c0.5,5.8,0.8,11.7,1.1,17.5c0.3,5.5,1.1,10.9,1,16.4c0,3.1-0.5,6.2-0.4,9.4
	c0.1,3.3,0.5,6.6,1.3,9.8c0.2,0.8,1,1.2,1.8,1c0.5-0.1,0.8-0.5,1-1c1.8-6.7,1.8-13.8,1.7-20.7c-0.1-7.7-0.2-15.4-0.5-23
	c-0.5-8.5-0.1-17.1,1-25.6c0.6-4.2,1.4-8.5,2.2-12.7s1.6-8.4,1.9-12.6c0.5-6.7,0-13.4-0.4-20.1l0,0c0.2-0.8,0.5-1.6,0.6-2.4
	c0.2-0.8,0.6-1.4,1.2-1.9c-0.9-3.2-1.4-6.5-1.6-9.8c-0.3-5.9-1.2-11.7-2.9-17.4c-1-3.2-1.7-6.5-2.3-9.8c-0.4-3.7-0.5-7.3-0.4-11
	c0.1-7.1,0.7-14.2,0.1-21.3c0.6,0.4,1.2,0.7,1.8,1.1c1.1,0.7,2.2,1.4,3.4,1.9c0.1,0.3,0.2,0.5,0.3,0.7s0.4,0.3,0.6,0.2
	c0.2-0.1,0.3-0.3,0.2-0.5c0.9,0.3,1.9,0.3,2.9,0c6.2,0.1,12.4,0.6,18.6,0.3c2.8-0.1,5.7-0.2,8.5-0.5c1.4-0.1,2.8-0.3,4.1-0.6
	c0.7-0.1,1.4-0.3,2.1-0.5c0.7-0.2,1.1-0.5,1.7-0.6c0.7,0.2,1.4-0.1,1.8-0.6c6.8-2.5,12-8.6,16.2-14.3c1-1.3,2.1-2.5,3.1-3.8
	c0.6-0.7,1.2-1.4,1.7-2.2c-1.2,2.1-2.3,4.2-3.3,6.4c-0.5,1-0.9,2.1-1.3,3.2c-3.4,4.9-6,10.3-7.5,16c-1.8,7.6-0.8,15.5-0.1,23.2
	c0.8,8.5,1.1,16.9-1.5,25.2c-2.1,6.8-4.3,13.4-4.7,20.6c-0.4,8.1-0.1,16.2,0.9,24.3c0.6,4.2,1.5,8.3,1.7,12.5s0.1,8.4,0,12.6
	c-0.1,8.3,2.4,16.6,1.5,24.9c-0.4,4-2,7.8-2.6,11.8c-0.5,3.8,0.2,7.1,1.2,10.7c2.2,7.7,3.5,15.6,3.8,23.6c0.2,3.6,0.2,7.3,0.5,10.9
	c0.4,3.7,0.6,7.5,0.5,11.3c-0.3,7.8-4.3,14.7-6.7,21.9c-1.9,5.5-2.6,11.4-1.8,17.2c1.3,10.3,6.6,21.6,17.1,25.2
	c6.3,2.2,11.2-0.8,16.4-4c6.2-4,13.6-5.8,19.8-9.9c5.5-3.6,11.1-7,15.9-11.4c4.6-4.2,6.7-9.6,8.2-15.5c3.8-14.7,4.3-30.2,9.1-44.7
	c1.9-5.7,6-10.2,7.3-16.1c1.8-8.2,3-16.4,3.8-24.8C1031.4,429.9,1031.5,421.3,1030.7,412.8z M890.6,283.2c-0.7-0.4-1.5-0.8-2.2-1.2
	c-2.4-1.5-4.8-3-7.1-4.8c-5.6-4.4-10.4-9.6-14.1-15.6c-0.7-1-1.3-2.1-1.9-3.1c-1.1-2.3-1.9-4.6-2.6-7c-0.6-2.7-0.7-5.4-1-8.1
	c-0.7-5.5-1.8-10.9-2.8-16.4c-0.1-0.5-0.2-1.1-0.3-1.6h0.1c0.7-0.5,1.6-0.8,2.5-0.7c0.8,0.1,1.5,0.5,2.1,1c1.5,1.4,2.6,3.1,3.3,5
	c0.8,2,1.5,4,2.1,6s1.1,4.1,2.6,5.6c0.2,0.3,0.5,0.5,0.7,0.7c0,0.1,0.1,0.2,0.1,0.3l0.1,0.1l0,0l0,0c1.1,0.8,2.2,1.4,3.5,1.9
	c1.2,0.6,2.6,0.8,4,0.6c0.1,0,0.2-0.1,0.3-0.2c0.1,0.1,0.1,0.2,0.3,0.2h-0.1c-0.3-0.1-0.6,0.2-0.7,0.5c0,0.3,0.1,0.6,0.4,0.7
	c4.1,1,8.4,1.4,12.5,2.7c3.8,1.3,7.7,1.8,11.7,1.6c4.1-0.4,8.2-1.1,12.3-2c4.1-0.8,8.2-1.6,12.2-2.6s7-3.7,10.9-4.9
	c0.3-0.1,0.4-0.3,0.4-0.6l0,0h0.2c0.2,0,0.3-0.1,0.4-0.2c0-0.1,0-0.2,0.1-0.2c1.7-0.1,3.4,0,5,0.4c0.7,0.1,1.5,0.3,2.1,0.7
	c0.2,0.1,0.4,0.3,0.6,0.4c0,0,0,0,0,0.1c0.2,0.3,0.3,0.6,0.4,0.9c1.2,3.3-1.1,6.6-3.3,8.9c-2.1,2.1-4.6,3.9-7.3,5.1
	c-2.8,1.3-5.6,2.4-8.5,3.3c-6,2-12.2,3.4-18.2,5.6c-2.9,1-5.8,2.3-8.5,3.8c-2.2,1.2-4.3,2.7-6.2,4.4c-1.7,1.6-3.1,3.4-4.4,5.3
	C891.6,280.7,891,281.9,890.6,283.2z M902.9,244c7.3,0.3,14.3-2.1,21.5-2.3c3.9-0.1,7.9,0.1,11.8,0c-2.2,0.9-4.2,2.2-6.4,3
	c-1.8,0.6-3.7,1.1-5.6,1.4c-2,0.5-4,0.9-6,1.4c-4.1,0.9-8.2,1.6-12.3,2.1c-4,0.5-8.1,0.1-12-1c-2.2-0.6-4.4-1.2-6.7-1.6
	c-2.2-0.4-4.5-0.7-6.7-1.2h0.1C888.1,245.8,895.4,243.7,902.9,244z M881.8,244.5c6.7-2,13.1-5.1,20.1-5.8c2.1-0.2,4.3-0.2,6.4,0.2
	c1.7,0.2,3.4,0,5.1-0.4c4.3-0.9,8.8-0.4,13.1,0.4c2.1,0.4,4.1,1,6.2,1.5c-2.2,0-4.4-0.1-6.6,0c-3.6,0.1-7.2,0.5-10.8,1.1
	c-3.6,0.8-7.2,1.2-10.8,1.4c-1.9,0-3.8-0.1-5.7,0s-3.7,0.3-5.5,0.5C889.5,243.8,885.7,244.4,881.8,244.5L881.8,244.5z M945.8,266.4
	c-1,1.3-2.1,2.5-3.1,3.8s-2.4,2.8-3.7,4c-2.5,2.6-5.5,5-9,6.2c-0.4,0.1-0.8,0.4-1,0.9c-0.2,0.1-0.4,0.3-0.5,0.5
	c-0.5,0.2-1,0.3-1.5,0.4c-0.6,0.2-1.3,0.3-1.9,0.4c-1.4,0.2-2.8,0.4-4.1,0.6c-2.7,0.2-5.5,0.4-8.2,0.5c-6.5,0.2-13-0.4-19.6-0.4
	c-0.5,0-1,0.2-1.2,0.6l-0.4-0.2l0,0c0.3-1,0.7-2,1.3-2.9c1.2-2,2.7-3.9,4.4-5.5c1.8-1.7,3.9-3.2,6.1-4.4c2.8-1.5,5.8-2.8,8.9-3.9
	c6.1-2.1,12.3-3.6,18.4-5.7c5.7-1.9,11.8-4.2,15.8-8.8c2.1-2.4,4.1-5.8,3.2-9c-0.1-0.2-0.2-0.5-0.3-0.7c0.3-0.7-0.3-1.2-0.9-1.6
	l-0.2-0.1c-0.1-0.2-0.3-0.3-0.4-0.5c0,0.1,0.1,0.2,0.1,0.3c-0.6-0.3-1.2-0.5-1.8-0.6c-1-0.2-2-0.3-3.1-0.4c-1-0.1-2-0.1-3,0H940
	c-4.3,0-8.4-1.6-12.6-2.4c-4.1-0.9-8.3-1.2-12.5-0.8c-1.9,0.3-3.7,0.9-5.7,0.9c-1,0-2-0.3-2.9-0.4c-1.1-0.1-2.2-0.1-3.3,0
	c-4.1,0.5-8,1.4-11.9,2.8c-4.3,1.5-8.6,3.2-13,4.2h-0.2c-0.7-0.3-1.5-0.5-2.2-0.7c-1-0.3-1.9-0.7-2.7-1.4c-0.1-0.1-0.2-0.1-0.3-0.1
	c-0.1-0.1-0.2-0.2-0.3-0.3c-1.6-1.5-2-3.6-2.7-5.6c-0.7-2.1-1.4-4.1-2.4-6.1c-0.8-1.9-2-3.7-3.5-5.1c-0.7-0.6-1.6-1-2.6-1.2
	c-1-0.1-2,0.2-2.8,0.7c-0.7-4.4-1.2-8.9-1.6-13.4c-0.5-5.3-0.7-10.7-0.6-16.1c0.1-5.3,0.4-10.6,1.2-15.9c0.2-1.5,0.5-3,0.8-4.5
	c0.1,0,0.1,0,0.2,0l1.7-0.3c0.3,0.1,0.6,0.1,0.8,0.1c2.5-0.8,5-1.3,7.6-1.5c2.5-0.1,5.1,0,7.6,0.1c2.6,0.1,5.1,0.5,7.6,1
	s5.1,1.3,7.6,0.5c0.1,0,0.2-0.1,0.3-0.1c0.2,0,0.3-0.1,0.4-0.1c1-0.3,1.9-1,2.3-2c0.2-1.2,0-2.5-0.5-3.7c-0.5-1.3-1.2-2.5-2-3.7
	c-0.6-0.8-1.5-1.3-2.5-1.4c-1.6-0.4-3.1-0.8-4.7-1.2c-1.6-0.3-3.2-0.4-4.8-0.3c-1.6,0-3.2-0.3-4.9-0.3c-1.5,0-2.9,0-4.4,0H870
	c-0.4-3.4-0.2-6.8-0.4-10.2c-0.1-2-0.3-4-0.7-6c-0.5-2-1-4-1.7-5.9c-0.8-2.2-1.4-4.4-1.8-6.7c-0.1-0.5-0.9-0.3-0.8,0.2
	c0.8,4,2.4,7.8,3.3,11.8s0.8,8.1,0.9,12.3c0,1.5,0.2,3,0.4,4.5c-2.9,0-5.7,0.4-8.5,1.2c0.5-2.5,0.9-5,1.1-7.6
	c0.2-2.8,0.3-5.6,0.4-8.3c0.1-5.1,0.8-10.2,2.1-15.2c0.6-2.3,1.5-4.5,2.7-6.6c1.2-2.3,2.8-4.4,4.2-6.6c1.3-2.3,3.2-4.2,5.4-5.5
	c2.3-1.3,5-2,7.4-3.2c0.3,0.2,0.7,0.3,1.1,0.2c5.6-1.1,11.4,0.7,17,0c2.7-0.3,5.3-0.9,7.9-1c1.3-0.1,2.6-0.1,3.9,0
	c1.5,0.1,2.9,0.6,4.4,0.7c0.2,0,0.5,0,0.7-0.2c0.1,0.5,0.4,0.8,0.8,1c4,1.5,6.8,5.2,9.5,8.2c0.1,0.1,0.2,0.2,0.3,0.4
	c-3.6-0.7-7.2-0.5-10.7,0.5c-3.9,1.2-7.7,2.7-11.4,4.6c-3.8,1.9-7.9,3.3-12.1,4.2c-5,0.9-10.2,0.4-15.3,0.3s-10.9-0.1-15.4,2.8
	c-0.3,0.2,0,0.8,0.3,0.6c4-2.6,9-2.7,13.6-2.6c5,0.1,10,0.6,15,0.1c4.3-0.6,8.5-1.8,12.4-3.6c3.7-1.6,7.3-3.4,11.2-4.7
	c2.1-0.7,4.3-1.2,6.5-1.4c2.3-0.1,4.6,0,6.8,0.5c2.8,2.9,5.8,5.6,8.4,8.8c1.5,1.8,2.7,3.8,4.2,5.6s3,3.5,4.4,5.3
	c2.7,3.6,4.7,7.6,6,11.9c1.1,3.8,1.8,7.6,2.1,11.6c-0.4-0.2-0.9-0.4-1.3-0.6c-1.5-0.8-3-1.6-4.6-2.3c-2.8-1.3-5.8-2.1-8.8-2.3
	c-6.3-0.5-12.6,0.6-18.3,3.1c-3.2,1.3-6.2,3-9,5.1c-0.2,0.2-0.4,0.4-0.5,0.7c-0.8-0.1-1.8,0.7-1.4,1.6c0.9,2.2,2,4.4,3.4,6.3
	c0.6,1,1.7,1.7,2.8,1.7c1.4-0.1,2.5-1.4,3.6-2.2c1.5-1,3.1-1.9,4.8-2.6c1.8-0.8,3.6-1.5,5.5-2.1c3.8-1.1,7.8-1.6,11.7-1.4
	c2.1,0.1,4.3,0.5,6.3,1.1c2,0.7,3.9,1.8,5.4,3.3c0.3,0.4,0.8,0.5,1.3,0.4c0.2,3,0.4,5.9,0.9,8.8c0.8,5.3,2.4,10.4,3.8,15.6
	c0.4,1.4,0.7,2.8,1.1,4.2c-1.8,0.6-3.5,1.4-5.2,2c-1.2,0.5-2.4,0.9-3.6,1.3c-1.4,0.4-2.8,0.6-4.2,0.8c-2.7,0.4-5.4,0.5-8.2,0.4
	c-2.8-0.2-5.5-0.7-8.2-1.5c-4.5-1.2-8.7-3-12.7-5.4c-2-1.2-3.9-2.4-5.7-3.8c-2-1.4-3.8-3-5.5-4.8c-2.7-3.3-4.3-7.4-4.6-11.7
	c-0.2-2.2-0.2-4.5-0.1-6.7c0.1-2.2,0.4-4.4,1-6.5c1.2-3.6,3.3-6.8,6.1-9.4c3-2.7,6.4-4.9,10-6.7c3.7-1.9,7.5-3.5,11.4-4.7
	c4-1.2,8.4-2.2,12.7-1.8c0.9,0.1,1.8,0.3,2.6,0.5c0.5,0.1,0.7-0.6,0.2-0.7c-4-1.2-8.4-0.6-12.4,0.4c-4.3,1.1-8.5,2.6-12.5,4.5
	c-3.7,1.7-7.2,3.8-10.4,6.2c-3.1,2.3-5.7,5.4-7.4,8.9c-1.9,4-2.2,8.4-2.2,12.8s0.7,8.8,2.9,12.6c1.2,2,2.7,3.7,4.4,5.2
	c1.9,1.6,3.8,3.1,5.8,4.4c3.9,2.7,8.1,4.8,12.5,6.4c5.1,1.9,10.5,2.8,15.9,2.7c2.9-0.1,5.7-0.5,8.5-1.3c2.6-0.8,5.1-1.8,7.5-2.9
	c0.5-0.2,1-0.4,1.5-0.5c0.9,3.5,1.7,7.1,2.4,10.7c0.5,2.7,0.8,5.4,0.9,8.1c0,2.8-0.1,5.7-0.3,8.5c0,2.1-0.3,4.1-0.7,6.2
	c-0.8,1.9-1.5,3.9-2.3,5.8c-0.3-0.1-0.6-0.2-0.9-0.3l-0.1,0.2c-0.2,0.7-0.5,1.4-0.8,2c-0.7,1.5-1.5,2.9-2.3,4.3
	c-1.8,3.1-3.7,6.1-5.8,9C950.5,260.3,948.1,263.3,945.8,266.4L945.8,266.4z M858.9,171.4c0.4-2,0.9-4.1,1.4-6.1
	c0.2,0.1,0.4,0.1,0.7,0c0.6-0.2,1.1-0.3,1.7-0.4c0.1,0,0.2,0,0.3-0.1c0.1,0,0.2-0.1,0.3-0.2c0.1-0.1,0.1-0.1,0.2-0.2
	c2.1-0.4,4.2-0.6,6.4-0.6c0.1,0.1,0.3,0.2,0.5,0l0,0h0.5c1.6,0,3.3,0,4.9,0s3.5,0.3,5.2,0.2c1.8,0,3.6,0.3,5.3,0.8
	c0.8,0.2,1.6,0.5,2.4,0.7c0.4,0,0.8,0.1,1.2,0.2c0.4,0.3,0.7,1.4,0.9,1.9c0.3,0.7,0.5,1.5,0.8,2.2c0.2,0.4,0.5,1,0.3,1.4
	c-0.1,0.2-0.5,0.5-0.8,0.7c-2.6,0.3-5.1-0.4-7.7-0.8c-2.6-0.4-5.1-0.7-7.7-0.8c-2.5-0.1-5.1-0.1-7.6,0c-2.3,0.2-4.6,0.6-6.8,1.2
	c-0.2-0.1-0.4-0.2-0.7-0.2C860,171.3,859.4,171.3,858.9,171.4L858.9,171.4z M956.1,166.3C956.1,166.3,956.2,166.3,956.1,166.3
	c0.2,1.2,0.2,2.2,0.3,3.3c-0.3,0-0.5,0-0.8,0.2c-1-0.8-2.1-1.5-3.2-2.1c-1.7-0.8-3.6-1.4-5.5-1.7c-3.9-0.6-7.9-0.5-11.8,0.1
	c-3.8,0.6-7.6,1.9-11,3.7c-1.5,0.8-3,1.6-4.4,2.6c-0.6,0.4-1.1,0.9-1.7,1.2l-0.1,0.1c-0.3-0.3-0.6-0.6-0.9-1
	c-0.5-0.6-0.8-1.2-1.2-1.9c-0.4-0.6-0.8-1.4-1.2-2.1c0.1,0,0.2-0.1,0.3-0.2c9-6.7,21.6-10.1,32.4-6.3c1.6,0.6,3.1,1.3,4.7,2.1
	c0.8,0.4,1.5,0.8,2.3,1.1C955,165.5,955.6,165.9,956.1,166.3L956.1,166.3z M1023.3,462.2c-1.2,5.7-5.1,10-7,15.4
	c-2.7,7.6-4.1,15.6-5.4,23.6c-1.1,6.7-2.1,13.5-3.6,20.2c-1.4,5.9-3.1,11.4-7.6,15.6c-4.7,4.4-10.3,7.8-15.7,11.2
	c-6.2,4-13.5,5.6-19.7,9.5c-2.4,1.5-4.8,3.3-7.6,4c-3,0.5-6-0.1-8.5-1.8c-4.6-2.7-7.7-7.4-9.6-12.3c-1.9-5-2.6-10.4-2.2-15.8
	c0.7-7,4.2-13.4,6.5-20c2.5-7,2.5-13.6,1.9-21c-0.6-7.1-0.6-14.2-1.6-21.3c-0.5-3.7-1.1-7.3-1.8-11c-0.7-3.8-2.5-7.4-2.6-11.2
	c-0.1-4,1.6-7.9,2.4-11.8c0.7-3.7,0.8-7.4,0.4-11.1c-0.4-4-1-8.1-1.2-12.1s0-8.1,0.1-12.1c0-8.1-1.8-15.7-2.4-23.7
	c-0.6-7.8-1.1-16.1,0.3-23.8c1.2-7.1,4.4-13.7,5.5-20.8c1.2-7.9,0.3-15.8-0.4-23.7c-0.6-7.2-1.1-14.5,1.3-21.4
	c0.6-1.6,1.2-3.1,1.9-4.6c0.1,0,0.2,0.1,0.3,0.1c0.6,0.1,1.3-0.3,1.5-1c1.2-2.8,2.4-5.6,3.7-8.3l0.8-1.2l-0.2-0.2
	c1.3-2.8,2.8-5.5,4.3-8.2c1.4-2.4,2.8-4.9,4.1-7.4l0.5-0.6l-0.1-0.1l0.3-0.6c1.5-3.1,2.7-6.4,3.9-9.6c1.3-3.7,2.4-7.4,3.6-11.1
	c0.3-0.8-0.1-1.7-0.9-2c-0.1,0-0.1,0-0.2-0.1c0.6-4.8,0.6-9.7,0.1-14.5c-0.8-5.4-1.9-10.7-3.3-16c-1.3-5.3-3-10.5-4.2-15.9
	c-2.3-10.5-1.3-21.5-3.8-32c-1.1-4.5-2.9-8.7-5.4-12.6c-0.2-0.2-0.3-0.5-0.5-0.7l1.7,2.1c3.3,4.1,6.6,8.2,8.8,13.1
	c1.9,4.7,3.3,9.6,4.1,14.6c0.9,5,1.5,10.1,2.2,15.2c0.8,6.3,1.3,12.6,1.9,18.9s1.1,12.4,2.9,18.4c1.8,5.7,4.1,11.2,5.7,16.9
	c1.6,5.6,2.5,11.3,2.8,17.1c0.1,1.5,0.1,3,0.1,4.6c0,0.6,0.4,1,1,1s1-0.4,1-1c0.3-5.9-0.2-11.9-1.5-17.7c-1.4-5.8-3.2-11.5-5.3-17
	c-1.1-2.9-2-5.8-2.7-8.8c-0.6-3.1-1.1-6.2-1.3-9.4c-0.6-6.4-1.2-12.7-1.8-19.1c-0.6-5.4-1.2-10.8-2.1-16.2
	c-0.7-5.1-1.9-10.2-3.6-15.1c-0.8-2.3-1.9-4.6-3.1-6.8c-1.4-2.2-2.9-4.4-4.5-6.4c-3.5-4.4-7.2-8.5-10.1-13.4
	c-5.1-8.4-7.3-18.3-14-25.8c-0.8-0.9-1.6-1.7-2.6-2.5c-0.9-0.8-2.2,0.5-1.3,1.3c7.5,6.3,10,16.3,14.2,24.8c1.3,2.6,2.9,5.1,4.6,7.5
	c-1.8-2.3-3.8-4.5-5.4-6.9c-3.1-4.6-7.4-8-11.2-12c-3.2-3.4-6.2-7.1-10.5-9c-0.1-0.1-0.2-0.2-0.3-0.2c-0.6-0.4-1.3-0.7-2.1-0.7
	l-0.1-0.1c-2.5-1.4-5.8-1.6-8.6-1.3s-5.5,0.7-8.3,1.2c-5.9,1-11.8-0.8-17.6,0.2c-0.4-0.4-1-0.4-1.5-0.2c-2.3,1.2-4.8,1.9-7.1,3.1
	c-2.2,1.1-4,2.8-5.5,4.7c-1.4,1.9-2.6,3.9-3.9,5.8c-1.3,1.9-2.4,3.8-3.3,5.9c-1.9,4.6-3.1,9.4-3.5,14.3c-0.6,5.5-0.4,11.1-1.1,16.6
	c-0.8,5.5-2.3,10.9-3.3,16.4c-0.9,5.3-1.6,10.7-2,16.1c-0.4,5.5-0.4,11.1,0,16.6c0.3,5.4,0.9,10.8,1.8,16.2
	c1.1,6.2,2.3,12.3,3.3,18.5c0.2,1.6,0.6,3.1,0.8,4.7s0.4,3.2,0.7,4.7s0.7,2.9,1.3,4.3c0.3,0.7,0.7,1.5,1,2.2l-0.3,0.2
	c0.6,1.4,1.3,2.7,2.2,3.9c2.2,3.2,4.7,6.3,7.1,9.3c3.4,4.1,7.5,7.7,12,10.5c-0.6,0.2-0.9,0.8-0.8,1.4c1,11.4-1.4,22.9,0.4,34.2
	c0.8,5.4,2.7,10.5,3.9,15.8s0.8,10.6,1.7,15.9c-0.1,0.2-0.1,0.3-0.1,0.5c-0.3,8.2,0.7,16.3,0.5,24.5c-0.2,8.4-2.3,16.7-3.6,24.9
	c-0.7,4.1-1.3,8.3-1.6,12.5s-0.3,8.6-0.2,12.9c0.1,7.8,0.3,15.6,0.4,23.5c0.2,5,0.1,10-0.2,15c0-0.2,0-0.3,0-0.5
	c-0.1-2.8,0.2-5.6,0.2-8.4c0.1-5.4-0.5-10.8-0.9-16.2c-0.7-11.4-0.5-23.1-3.6-34.2c-1.4-5-3.3-9.9-4.9-14.9c0.1-0.4,0.2-0.7,0.3-1
	c0-0.6,0-1.2,0.1-1.8c-1.6-2.3-3-4.7-4.2-7.2c-0.5-1.2-2.6-0.9-2.9,0.4c-0.8,2.8-2,5.4-3.6,7.8c-1.6,2.8-3,5.6-4.2,8.6
	c-1.9,4.3-3.2,8.8-3.7,13.5c-0.4,5,0.4,10.1,1.3,15c1.2,6.1,2,12.3,3.2,18.4s3.1,11.9,5.7,17.5c2.8,5.8,6.3,11.1,8.9,17
	c2.4,5.5,3.9,11.3,6.9,16.6c2.5,4.4,6.7,8.1,8.3,13c1.5,4.6-1.3,9.2-3.9,12.8c-1.6,2.2-3.8,4-5.2,6.4s-2.3,5.2-4.7,7.1
	c-3.9,3.2-9.5,2.5-13.9,4.5c-5.2,2.3-9,7.8-15,8.1c-2.6,0.1-5-1-7.2-2.3c-2.7-1.5-5.4-3.1-8.2-4.5c-5.6-2.9-10.6-5.9-14.2-11.3
	c-3.1-4.7-5.8-9.5-9.6-13.8c-3.5-3.9-7.2-7.5-10.1-11.9c-6.2-9.5-5.4-21.8-4.7-32.6c0.4-5.6,0.6-11.2,1.2-16.8
	c0.6-6.1,2.6-12,4.3-17.8c1.9-5.8,3.1-11.7,3.7-17.8c0.5-6.6,0.6-13.2,1.2-19.8c1-13.4,4.8-26.4,6.8-39.7c1.1-6.4,1.7-12.8,1.8-19.3
	c-0.1-6.3-0.6-12.5-1.6-18.7c-1.8-12.8-4.9-25.4-5.1-38.4c-0.2-12.8,4.3-24.4,9.2-36.1c2.5-5.7,4.5-11.6,6-17.7
	c1.3-5.8,2.2-11.7,2.7-17.6c0.7-6.7,1.5-13.4,2.8-20s2.9-13.1,4.2-19.7c2.5-12.9,3.6-26,7.8-38.5c6.6-19.6,22.9-38.6,43.9-42.7
	c4.6-0.9,9.2-0.9,13.8-0.2c0,0.1,0.1,0.2,0.2,0.2c0.3,0.3,0.6,0.4,1,0.4c1.5,0.1,3,0,4.5-0.3c0.2-0.1,0.4-0.2,0.6-0.3
	c6.9-2.5,13.8-4.7,20.6-0.5c6.6,4.1,12,10,17.4,15.5c10.2,10.3,17.6,22.7,23.9,35.7c7,14.4,12.4,29.5,17.5,44.7
	c2.5,7.6,4.2,15.4,6.9,23c1.4,3.6,2.5,7.3,3.5,11.1c0.8,4,1.3,8.2,1.2,12.3c0.2,16.2-2.7,32.6-1.3,48.8c1.3,15.2,12.9,26.6,17,41
	c2.2,7.7,1.8,15.9,1.8,23.8c-0.2,7.6,0.7,15.2,2.8,22.6c4.4,15.4,11.4,30.1,13.2,46.2C1028.6,428.7,1026.9,446.1,1023.3,462.2
	L1023.3,462.2z"/>
<path class="st1" d="M931.8,300.7c-0.2,0-0.4,0.2-0.4,0.4c0,0.2,0.2,0.4,0.4,0.4s0.4-0.2,0.4-0.4C932.2,300.9,932,300.7,931.8,300.7
	z"/>
<path class="st3" d="M891.7,96.6c-3.5-1-7.3-1.1-10.9-0.4c-0.2-0.2-0.5-0.2-0.8-0.2c-21.2,5.4-31.9,26.9-37.8,46.2
	c-7.8,25.8-8.9,52.7-10.6,79.4c-0.5,8.2-1,16.2-3.4,24c-2.2,7.1-5.1,13.9-7.1,21c-1.9,7.4-2.4,15.1-1.5,22.7
	c0.8,8.4,2.4,16.7,2.4,25.1c0,17.6-0.1,35.1-2.9,52.5c-1.3,8.5-3.1,17-4.5,25.5c-0.7,4.1-1.2,8.2-1.4,12.4c-0.1,4.5,0.2,9-0.1,13.4
	c-0.4,4.1-1.3,8.1-2.6,12.1c-1.1,4-1.9,8-2.6,12.1c-1.4,8.2-2.3,16.5-2.6,24.9c-0.2,7.3,0.2,14.7,0.5,22c0.3,6.5,1,13.2,3.3,19.3
	c1.1,2.7,2.5,5.3,4.4,7.6c0.7,0.8,2.1-0.3,1.5-1.1c-8.2-10.6-7-25.4-7.6-38.1c-0.7-16.7,1.8-33.2,6.1-49.2c1-3.6,1.6-7.3,1.8-11
	c0.1-4.4-0.1-8.7,0-13.1c0.3-8.6,2.4-17.2,3.9-25.7c1.5-8.2,2.8-16.4,3.7-24.7s1.1-16.6,1.2-25s0.2-16.9-0.8-25.3
	c-1-8.1-2.6-16.2-2.2-24.4c0.7-14.8,9.4-27.6,11.6-42.1c1.2-8.1,1.3-16.5,1.8-24.7c0.5-8.4,1-16.9,1.8-25.3
	c1-11.2,2.8-22.4,5.2-33.4c4.5-19.5,12.3-43,31.6-52.6c1.2-0.6,2.4-1.1,3.7-1.5c0.2,0.1,0.4,0.1,0.6,0c4.4-1.5,9.1-1.7,13.6-0.5
	c0.6,0,1-0.5,1-1C892.2,97.1,892,96.8,891.7,96.6z"/>
<path class="st5" d="M852.4,139.4c-4.7,11.1-6.1,23.3-7.5,35.2c-0.7,6.3-1.7,12.5-2.5,18.8c-0.8,7-1.2,14-1.4,21.1
	c-0.2,7.2-0.2,14.4-0.2,21.6s0.8,14.6-0.9,21.6c-1.5,6.5-4,12.6-5,19.3c-0.8,6.7-1.2,13.4-1.1,20.1c-0.1,29.1-0.9,58.1-3.2,87.2
	c-2.2,28.6-9.3,56.5-11.2,85.1c-0.6,6.9-0.6,13.8,0,20.7c0.7,6,2.1,12,4.2,17.7c1.9,5.2,3.9,10.8,6.9,15.5
	c2.8,4.3,6.9,7.5,10.4,11.1c1.7,1.9,3.7,3.4,6,4.5c1.1,0.5,1.9-1.5,0.8-2c-2.6-1.1-4.5-3.2-6.3-5.2c-1.9-2-3.9-3.7-5.7-5.7
	c-3.8-4-5.9-8.8-7.9-13.9c-2.3-5.6-4.1-11.5-5.3-17.5c-1.1-6.6-1.4-13.3-1-20c1.1-28,8.1-55.3,10.8-83.1c2.7-28.3,3.6-56.8,3.6-85.3
	c0-6.8-0.2-13.7,0.3-20.5c0.5-6.9,1.8-13.7,3.9-20.3c1-2.9,1.8-5.9,2.5-8.9c0.5-3.3,0.8-6.7,0.7-10c0-7-0.2-14-0.2-21.1
	s0-14.1,0.5-21.1c0.4-6.8,1.3-13.4,2.2-20.2c1.6-12.1,2.2-24.4,5.5-36.2c0.7-2.7,1.7-5.4,2.8-8C854.5,139.2,852.8,138.4,852.4,139.4
	z"/>
<path class="st5" d="M858.7,522.5c-11.3-10.5-18-25.3-21.2-40.2c-1.6-7.5-2.2-15.1-1.7-22.8c0.7-9.8,2.4-19.5,4-29.1
	c3.3-19.8,6.6-39.6,6.4-59.7s-2.8-40.3,0.6-60.3c1.7-9.8,4.8-19.3,6.5-29.1c0.8-5,1.2-10.1,1-15.1c-0.2-5.1-0.6-10.1-0.8-15.2
	c-0.1-2.5-0.1-5.1,0.1-7.6c0.1-1.2-1.8-1.2-1.9,0c-0.7,10.3,0.9,20.6,0.2,30.9s-4.1,20-6.2,29.9c-2,9.9-3,19.9-2.9,30
	c0,10.1,0.7,20.2,1,30.2c0.3,10.2-0.1,20.5-1.1,30.6s-2.6,20.2-4.1,30.2c-1.5,9.8-3,19.7-4.1,29.6c-0.9,7.7-0.8,15.5,0.3,23.2
	c2.3,15.1,8.3,30.6,18.7,42c1.2,1.3,2.5,2.6,3.9,3.8C858.2,524.8,859.6,523.3,858.7,522.5z"/>
<path class="st5" d="M878,502.9c-3.1-4.7-8.7-6.9-11.6-11.7c-6.3-10.4-9.9-22.2-12-34.1c-0.8-4.6-1.4-9.2-1.9-13.8
	c0.3-0.2,0.4-0.5,0.4-0.9c-0.8-5.1-1.5-10.1-1.8-15.3c-0.2-2.5-0.3-5.1-0.2-7.6s0.3-5,0.5-7.5c0.3-5.2,0.1-10.5,0.4-15.7
	c0.4-5.2,1.2-10.4,2.2-15.5c0.9-5.1,1.4-10.3,2-15.5s1.2-10.6,1.8-15.9c1.2-10.6,2.4-21.2,3.4-31.8c1.1-12,1.8-24,1.8-36
	c-0.2-0.5-0.8-0.8-1.3-0.6c-0.3,0.1-0.5,0.3-0.6,0.6c-0.1,21.5-2.6,42.8-5,64.1c-0.6,5.3-1.2,10.6-1.7,15.9s-0.9,10.6-1.7,15.8
	s-2,10.4-2.5,15.7s-0.3,10.4-0.5,15.6c-0.1,2.9-0.5,5.8-0.7,8.7c-0.2,2.8-0.2,5.6,0,8.4c0.2,3.3,0.5,6.6,1,9.9
	c-0.1,0.1-0.1,0.3-0.1,0.5c1,12.1,2.2,24.2,5.8,35.9c1.8,5.8,4.1,11.5,7,16.9c1.3,2.7,3,5.2,5.1,7.3c2,1.8,4.2,3.3,6.1,5.2
	c4.8,4.7,5.5,11.3,5.4,17.7c0,1.2,1.8,1.2,1.9,0C881.8,513.6,881,507.5,878,502.9z"/>
<path class="st3" d="M871.9,288.1c-2.2-6.4-6-12.1-7.8-18.6c-0.1-0.5-0.6-0.8-1.1-0.6s-0.8,0.6-0.6,1.1l0,0
	c1.6,5.7,4.7,10.8,6.9,16.3c2.2,5.3,2.7,10.9,2.6,16.6c-0.1,5.9-0.8,11.8-1.4,17.6c-0.7,6.5-1.5,13.1-2.2,19.6
	c-0.9,7.5-1.2,15-1.1,22.5c0.1,0.5,0.5,0.8,0.9,0.7c0.4,0,0.7-0.3,0.7-0.7c0.3-6.7,0.7-13.4,1.3-20s1.4-13.2,2.2-19.8
	c0.7-6,1.4-12,1.6-18.1C874,299.2,873.7,293.5,871.9,288.1z"/>
<path class="st3" d="M882.2,365.6c-1.2-7.4-1.9-14.8-2.3-22.2c-0.1-4.1,0.1-8.2,0.7-12.2c0.2-1.2-1.6-1.7-1.8-0.5
	c-2.3,14.8,1,29.7,2.7,44.3c0.5,4.1,0.8,8.2,0.9,12.4c0,0.5,0.4,0.9,0.8,0.9c0.5,0,0.9-0.4,0.9-0.9
	C884.2,380.1,883.2,372.8,882.2,365.6z"/>
<path class="st6" d="M930.1,100.1c-3.5-4.1-8.5-6.5-13.8-6.9c-5.4-0.3-10.7,1.5-15.8,2.9c-0.6,0.2-0.9,0.8-0.7,1.4
	c0.2,0.5,0.7,0.8,1.3,0.7c4.8-1.3,9.8-2.9,14.8-2.8s9.2,2.8,12.9,6.1c0.5,0.2,1.1,0.1,1.3-0.4C930.2,100.8,930.2,100.4,930.1,100.1z
	"/>
<path class="st5" d="M1008.5,383.8c-3.5-11.2-4.7-23-9.3-33.9s-9.8-21.5-12.7-33c-1.3-5.3-2.1-10.7-2.4-16.1
	c-0.2-5.8,0-11.6,0.6-17.4c0.5-6.1,1.2-12.2,1.6-18.3c0.4-5.4,0.3-10.9-0.3-16.3c-0.8-5.2-2.1-10.3-2.9-15.4
	c-0.8-4.7-1.5-9.8-0.1-14.5c0.1-0.5-0.1-0.9-0.6-1.1c-0.5-0.1-0.9,0.1-1.1,0.6c-1.2,4.1-1,8.5-0.5,12.6c0.6,4.8,1.6,9.5,2.4,14.3
	c0.8,4.9,1.2,9.9,1,14.8c-0.2,6.2-0.8,12.3-1.4,18.5c-0.6,6-1.2,12-1.2,18.1c0,5.5,0.5,11.1,1.5,16.5c2.2,11.5,6.9,22.3,11.7,33
	c1.2,2.8,2.5,5.5,3.5,8.3s1.9,5.6,2.6,8.4c1.5,5.7,2.8,11.5,4.5,17.1c0.4,1.4,0.9,2.8,1.4,4.2
	C1007.2,385.3,1008.8,384.9,1008.5,383.8z"/>
<path class="st3" d="M968.1,248.7c-2.3,8.8-5,17.5-7.9,26.1s-6,17.1-8.6,25.7c-4.7,16.1-5.5,33-5,49.7c0.4,8.8,1.2,17.5,2.4,26.2
	c1.2,8.9,3,17.8,3.4,26.8s-0.4,18.2-0.9,27.3c-0.3,4.2-0.7,8.4-0.8,12.6c-0.1,1.9,0,3.8,0.3,5.7c0.3,2.2,1,4.4,1.4,6.6
	c0.7,4.3,1,8.7,1,13.1c0.1,4.5,0.2,9,0.3,13.5c0.3,4.5,0.2,9.1-0.4,13.6c-0.6,4.3-1.9,8.5-2.6,12.8c-0.3,2-0.4,4.1-0.4,6.1
	c0.2,0.5,0.7,0.8,1.3,0.6c0.3-0.1,0.5-0.3,0.6-0.6c-0.1-4.4,1-8.8,2-13.1c1-4.2,1.6-8.4,1.7-12.7c0.1-4.4-0.2-8.9-0.4-13.3
	s0-8.8-0.3-13.2c-0.4-4.3-1.1-8.5-2-12.6c-0.8-4-0.3-8.1,0-12.1c0.4-4.5,0.5-9,0.8-13.5s0.6-8.9,0.7-13.4c0.1-4.5-0.1-9.1-0.5-13.6
	c-0.5-4.4-1.3-8.7-2-13.1c-1.3-8.7-2.4-17.4-3-26.2c-0.6-8.8-0.7-17.6-0.2-26.4c0.3-8.2,1.3-16.4,3.2-24.4c2-8.6,5.3-16.8,8.1-25.2
	c2.9-8.6,5.6-17.2,8-26c0.6-2.2,1.2-4.3,1.7-6.5c0.1-0.5-0.2-1-0.7-1.2C968.8,247.9,968.3,248.2,968.1,248.7z"/>
<path class="st5" d="M973.8,484.6c-0.7-8.9-2-17.8-2.3-26.8c-0.3-9.2-0.5-18.4-1.2-27.6c-0.7-9.4-2.2-18.8-3-28.2
	c-0.4-4.7-0.7-9.5-0.8-14.2s-0.1-9.4-0.4-14c-0.6-9.4-2.2-18.8-1.9-28.2c0.1-4.2,0.5-8.5,0.8-12.7s0.5-8.6,0.8-12.9
	c0.5-8.5,1.5-17,3.1-25.4c0.4-2,0.8-4,1.3-5.9c0.2-0.6-0.2-1.2-0.8-1.4s-1.2,0.2-1.4,0.8c-4.1,16.2-4.5,33.1-5.6,49.6
	c-0.3,4.4-0.6,8.7-0.5,13.1c0.2,4.6,0.6,9.2,1.1,13.9s0.9,9.4,1,14.1s0.2,9.4,0.4,14.1c0.5,9.4,1.7,18.6,2.7,27.9
	c1,9,1.5,18.1,1.8,27.2c0.2,4.6,0.2,9.2,0.5,13.8s0.8,8.9,1.2,13.3c1,8.8,1.8,17.7,0.7,26.6s-4.5,17.2-8.5,25.2
	c-1.6,3.2-3.2,6.4-4.6,9.7c-1.1,3-2.6,5.9-4.4,8.6c-0.9,1.2-2,2.2-3.3,2.9s-0.2,2.6,1.1,2c5.6-2.9,7.4-10.1,9.8-15.4
	c3.5-7.7,7.7-15,10.1-23.1C974.2,502.7,974.5,493.6,973.8,484.6z"/>
<path class="st3" d="M996.7,476.4c-0.4-13.4-2.5-26.6-3.7-39.9c-1.4-15.9-2.5-31.8-5.2-47.6c-2.5-14.6-7.3-29.1-7.8-44
	c-0.1-1.8,0-3.6,0-5.5c0.1-1.4-2-1.4-2.1,0c-0.7,14.8,3.5,29.4,6.3,43.8c3,15.5,4.2,31.3,5.6,47c1.2,13.5,3.2,27,4,40.6
	c0.9,13.2,0.5,26.8-4.5,39.2c-2.7,6.6-7.4,11.8-11,17.9s-6.1,13.2-8,20.1c-0.5,1.8-1,3.5-1.5,5.3c-0.1,0.5,0.2,0.9,0.7,1
	c0.4,0.1,0.8-0.1,0.9-0.5c2-7.1,4.6-14,7.6-20.7c3.1-6.5,8-11.8,11.5-18C996.1,503.5,997.1,489.4,996.7,476.4z"/>
<path class="st5" d="M1013.5,454.1c-0.1-5.4-0.5-10.8-0.5-16.2c-0.2-12.4,0-24.9-3.2-37c-0.1-0.6-0.7-0.9-1.3-0.7
	c-0.6,0.1-0.9,0.7-0.7,1.3c2.8,10.7,2.8,21.7,2.8,32.6c0,5.3,0.2,10.6,0.4,15.9c0.2,5,0.1,10-0.4,15c-0.5,4.9-1.5,9.8-2.9,14.5
	c-1.5,4.9-3.5,9.6-4.8,14.6s-2.3,10.3-3.3,15.5c-0.7,4.1-1.9,8-3.5,11.8c-1.6,3.4-3.8,6.5-6.4,9.1c-3.2,3-6.5,5.9-10,8.6
	c-0.8,0.7,0.3,2.1,1.1,1.5c6-4.2,12-9.2,15.7-15.6c4.5-7.9,5.5-17.3,7.4-26c0.6-2.6,1.2-5.1,2-7.6s1.8-5.1,2.8-7.6
	c1.7-4.7,3-9.6,3.8-14.6C1013.3,464.1,1013.6,459.1,1013.5,454.1z"/>
<path class="st5" d="M1002.8,341.7c-0.6-2.8-0.9-5.7-0.7-8.6c0.1-3-0.3-6-1.1-8.9c-1.8-5.4-4.9-10.3-6.3-15.8
	c-0.2-0.6-0.8-0.8-1.4-0.6c-0.5,0.2-0.8,0.7-0.7,1.2c1.4,5.5,4.5,10.4,6.2,15.8c1.8,5.7,0.2,11.8,2.2,17.4c0.1,0.5,0.6,0.8,1.1,0.6
	C1002.7,342.7,1002.9,342.2,1002.8,341.7L1002.8,341.7z"/>
<text transform="matrix(1 0 0 1 1049.17 267.88)" class="st4 st7 st8">DHRITI </text>
<text transform="matrix(1 0 0 1 1049.17 448.96)" class="st4 st7 st8">SHAH</text>
</svg>
