<?xml version="1.0" encoding="utf-8"?>
<!-- Generator: Adobe Illustrator 25.4.1, SVG Export Plug-In . SVG Version: 6.00 Build 0)  -->
<svg version="1.1" id="Layer_1" xmlns="http://www.w3.org/2000/svg" xmlns:xlink="http://www.w3.org/1999/xlink" x="0px" y="0px"
	 viewBox="0 0 2559.9 800" style="enable-background:new 0 0 2559.9 800;" xml:space="preserve">
<style type="text/css">
	.st0{fill:#CC3333;}
	.st1{fill:#143E5F;}
	.st2{fill:#7491AF;}
	.st3{fill:#201A84;}
	.st4{fill:#CCCCCC;}
	.st5{fill:#A9D3AC;}
	.st6{fill:#F2F2F2;}
	.st7{font-family:'Glass';}
	.st8{font-size:200px;}
</style>
<rect class="st0" width="2560" height="800"/>
<path class="st1" d="M3209,597.5c-0.8,0-1.5,0.7-1.5,1.5s0.7,1.5,1.5,1.5s1.5-0.7,1.5-1.5S3209.8,597.5,3209,597.5z"/>
<path class="st1" d="M740.8,222.1c0-0.1,0-0.1,0-0.1C740.8,222,740.8,222,740.8,222.1L740.8,222.1z"/>
<path class="st1" d="M742.2,223.1L742.2,223.1z"/>
<path class="st1" d="M745,220.6c-0.2-0.3-0.6-0.5-1-0.3s-0.5,0.6-0.3,1l0,0c0,0,0,0.1,0,0.1c0,0.1,0,0.1,0.1,0.2
	c0,0.1,0.1,0.3,0.1,0.4l0,0c0,0,0,0,0,0.1l0,0c0,0,0,0,0,0.1c0,0,0,0.1,0,0.1l0,0c0,0.1,0,0.1,0,0.2l0,0c0,0,0,0.1-0.1,0.1l0,0l0,0
	l0,0v0.1l0,0v0.1l-0.1,0.1l0,0l-0.1,0.1l-0.1,0.1l0,0h-0.2c-0.1,0-0.3,0.1-0.4,0.1h0.1H743h-0.7h-0.1l-0.4-0.1l0,0l0,0
	c-0.1,0-0.1-0.1-0.2-0.1l-0.3-0.2h-0.1l-0.1-0.1l0,0l-0.1-0.1l0,0l-0.1-0.1l0,0l-0.1-0.2V222c0,0,0-0.1,0-0.1v-0.1
	c0-0.5-0.4-0.8-0.9-0.8c0,0,0,0-0.1,0c-0.5,0-0.8,0.4-0.8,0.9c0,0.8,0.3,1.5,0.9,2c0.6,0.5,1.3,0.8,2,0.8c1.3,0.2,2.7-0.4,3.4-1.5
	C745.7,222.3,745.6,221.3,745,220.6z"/>
<path class="st1" d="M741,222.6L741,222.6C741,222.6,741,222.6,741,222.6L741,222.6L741,222.6z"/>
<path class="st1" d="M741.6,223C741.5,222.9,741.5,223,741.6,223z"/>
<path class="st1" d="M743.9,222.6L743.9,222.6C743.9,222.6,743.8,222.7,743.9,222.6L743.9,222.6z"/>
<path class="st1" d="M742.9,223.1"/>
<path class="st1" d="M744,222.1L744,222.1c0,0.1,0,0.1,0,0.1V222.1L744,222.1z"/>
<path class="st2" d="M760.4,222.4c0.3-0.3,0.3-0.8,0-1c0,0-0.1-0.1-0.1-0.1c-0.7-0.4-1.2-1-1.7-1.6c-0.5-0.5-1.1-1-1.7-1.4
	c-1.4-1-2.8-1.9-4.3-2.6c-2.9-1.4-6.1-2.1-9.4-2.2c-3.2-0.3-6.5,0.2-9.5,1.5c-1.5,0.7-3.1,1.4-4.6,2.2c-0.6,0.3-1.2,0.7-1.8,1
	c-1.5,0.7-3,1.3-4.5,1.8c-0.4,0.1-0.6,0.5-0.5,0.9c0.1,0.4,0.5,0.6,0.9,0.5c0.3-0.1,0.7-0.2,1-0.3l0,0c3.4-0.9,6.2-2.9,9.4-4.3
	c1.3-0.6,2.7-1,4.1-1.3c1.7-0.3,3.5-0.3,5.2-0.2c3.3,0.1,6.5,0.8,9.5,2.1c1.5,0.8,3,1.7,4.3,2.9c0.1,0.1,0.1,0.1,0.2,0.2
	c-1.5-0.7-3.2-1.1-4.8-1.4c-1.6-0.4-3.3-0.7-4.9-0.9c-1.1-0.1-2.1,0-3.2,0.1c-1,0-2,0-3,0.1c-1.7,0.3-3.3,0.8-4.8,1.5H736
	c-1.1,0.3-2.2,0.9-3.3,1.3c-1.1,0.4-2.2,0.9-3.2,1.5c-1.4,0.8-2.8,1.4-4.3,2l-0.5,0.1c-0.8,0.1-1.6,0.3-2.3,0.6
	c-0.2,0.1-0.4,0.3-0.4,0.6c0,0,0,0.1,0,0.1c0,0.6,0.1,1.2,0.3,1.8l0.1,0.1c0.1,0.2,0.2,0.5,0.4,0.7c0.3,0.4,0.6,0.7,0.9,0.9
	c0.3,0.2,0.6,0.4,0.9,0.6l0.5,0.3l0.2,0.1c0.1,0.1,0.3,0.1,0.4,0.2c0.1,0,0.3,0,0.4,0c5.4,3.1,12,2.1,17.8,1.1c1.7-0.2,3.4-0.6,5-1
	c1.3-0.4,2.5-0.9,3.7-1.6c3.1-1,6-2.7,8.4-4.9c0.1-0.1,0.1-0.2,0.2-0.3c0.4-0.5,0.3-1.2-0.2-1.5
	C760.7,222.4,760.6,222.4,760.4,222.4z M737.6,224.8c-0.1-0.1-0.1-0.2-0.2-0.3l-0.1-0.1c-0.2-0.3-0.4-0.6-0.6-0.9
	c0-0.1-0.1-0.3-0.1-0.4l-0.1-0.4c-0.1-0.3-0.2-0.6-0.2-0.9c0,0,0,0,0-0.1c0.8-0.3,1.6-0.6,2.4-0.8c0,0.1,0,0.1,0,0.2
	c0,0.1,0,0.3,0,0.4c0,0.1,0,0.1,0,0.2c0.1,0.2,0.2,0.4,0.3,0.6c0.1,0.2,0.3,0.4,0.4,0.5c0.1,0.1,0.2,0.1,0.3,0.2v0.1
	c0.1,0.1,0.1,0.2,0.2,0.2c0.1,0.1,0.3,0.2,0.4,0.3c0.2,0.1,0.4,0.1,0.5,0.1c0.2,0,0.4-0.1,0.5-0.2c0.1-0.1,0.2-0.2,0.2-0.4
	c0.1-0.2,0-0.5-0.1-0.6c-0.1-0.2-0.3-0.5-0.4-0.7s-0.1-0.2-0.1-0.4c0-0.1,0-0.2,0-0.2c0,0,0,0,0-0.1c0.1-0.2,0.1-0.4,0-0.6
	c0.7-0.1,1.4-0.1,2.1-0.2c0,0,0,0.1,0,0.1c0.2,0.3,0.3,0.6,0.5,0.9c0.1,0.3,0.2,0.5,0.2,0.8l0,0c0,0.2,0.1,0.4,0.2,0.5
	c0.1,0.1,0.3,0.2,0.5,0.2c0.2,0,0.3,0,0.5-0.1c0.2-0.1,0.3-0.3,0.4-0.5c0-0.3,0-0.5,0-0.8c0-0.3-0.1-0.5-0.1-0.8
	c0-0.1-0.1-0.3-0.2-0.4c0.8,0,1.6,0,2.4,0.1c0,0.2,0.1,0.3,0.1,0.4v0.1c0.1,0.2,0.1,0.4,0.2,0.6c0,0.3,0.1,0.7,0.2,1
	c0.1,0.2,0.2,0.4,0.4,0.5c0,0.7-0.2,1.4-0.7,2c-1.2,1.4-3.2,1.7-5,1.8c-1.8,0.1-3.6-0.3-5.1-1.3
	C737.7,225.3,737.7,225.1,737.6,224.8z M752,227.3c-1.1,0.6-2.3,1-3.4,1.4c-2.4,0.5-4.9,0.8-7.4,1c-3.5,0.3-7,0.2-10.5-0.2
	c-1.8-0.2-4.1-0.5-5.8-1.5c-0.2-0.2-0.4-0.4-0.6-0.6c-0.1-0.1-0.1-0.2-0.2-0.3l0,0c0.3-0.1,0.6-0.2,0.8-0.3c0.2-0.1,0.3-0.2,0.3-0.4
	l0.8-0.3l1-0.2c0.1,0,0.2-0.1,0.3-0.2c1.3-0.4,2.6-1,3.8-1.6c0.9-0.5,1.9-0.9,2.8-1.4c0,0.3,0.1,0.7,0.2,1c0.1,0.3,0.3,0.7,0.5,1
	c0.2,0.3,0.4,0.6,0.6,0.8l0.1,0.1c1.3,1.6,3.2,2.6,5.3,2.8c1.4,0.1,2.9,0,4.2-0.4c1.8-0.2,3.4-1.2,4.5-2.7c0.5-1,0.7-2.2,0.5-3.3
	c0-0.3,0.1-0.5,0.1-0.8c0-0.2,0-0.4,0-0.7h0.3c0.6,0.1,1.2,0.2,1.8,0.3c0.3,0.1,0.6,0.2,0.9,0.3c1.9,0.7,3.6,1.7,5.5,2.5
	c-0.8,0.6-1.8,1-2.5,1.5C754.7,225.9,753.4,226.6,752,227.3z"/>
<path class="st1" d="M758.4,228.1c-1.8,1.7-4.5,2.5-6.8,3.3c-2.9,1.1-5.9,1.9-8.9,2.4c-2.8,0.5-5.7,0.7-8.5,0.7
	c-3,0-5.8-0.8-8.8-1.2c-0.3-0.1-0.6-0.3-1-0.4c-0.1,0-0.2,0-0.2,0c-0.1,0-0.2,0-0.2,0.1c-0.1,0.1-0.2,0.2-0.3,0.4
	c0,0.2,0,0.3,0.1,0.5l0.1,0.1c0.1,0.1,0.1,0.1,0.2,0.1c-0.1,0.4,0.2,0.8,0.6,0.8c0,0,0,0,0,0c3.2,0.4,6.4,1.3,9.7,1.3
	c3,0,6-0.3,8.9-0.9c3.3-0.7,6.4-1.6,9.5-2.8c2.2-0.8,4.8-1.5,6.4-3.4C759.9,228.4,759,227.5,758.4,228.1z"/>
<path class="st1" d="M821.9,217.4L821.9,217.4c0-0.1,0-0.1,0-0.1C821.9,217.3,821.9,217.3,821.9,217.4L821.9,217.4z"/>
<path class="st1" d="M826.4,215.1c-0.2-0.4-0.7-0.5-1.1-0.3c-0.3,0.2-0.4,0.5-0.3,0.9c0,0.2,0.1,0.4,0.1,0.6s0,0.1,0,0.2
	c0,0,0,0.1,0,0.1l0,0c0,0.1,0,0.3,0,0.4c0,0,0,0,0,0.1c0,0.1,0,0.1-0.1,0.2l0,0l-0.1,0.2l0,0l-0.1,0.1l-0.2,0.1l0,0l0,0
	c-0.1,0.1-0.2,0.1-0.3,0.2h-0.1h-0.2h-0.2h-0.2h-0.2h-0.4c-0.1,0-0.4-0.1,0,0c-0.1,0-0.1,0-0.2,0l-0.4-0.1l-0.2-0.1l-0.3-0.2l0,0.1
	l-0.1-0.1l0,0l0,0l-0.1-0.1l-0.1-0.1c0,0,0,0,0,0.1c0,0,0-0.1,0-0.1l0,0c0-0.1,0-0.1,0-0.1s0-0.1,0-0.1V217c0-0.1,0-0.2,0-0.2
	c0-0.5-0.5-0.8-0.9-0.8c0,0,0,0,0,0c-0.5,0-0.9,0.4-0.9,0.9c-0.2,1.6,1.4,2.7,2.8,2.9c1.4,0.2,2.9-0.4,3.7-1.7
	C827.1,217.1,827,216,826.4,215.1z"/>
<path class="st1" d="M824,218L824,218C823.8,218,823.8,218,824,218L824,218z"/>
<path class="st1" d="M822.1,217.6L822.1,217.6C822.1,217.6,822,217.6,822.1,217.6L822.1,217.6L822.1,217.6z"/>
<path class="st1" d="M824.8,217.7"/>
<path class="st2" d="M821.8,217.6L821.8,217.6c0,0.1,0,0.1,0,0.2V217.6z"/>
<path class="st2" d="M840.8,216.7c-0.2,0.1-0.5,0.3-0.7,0.4l-1-0.7c-1.4-0.9-3-1.6-4.6-2c-1.6-0.5-3.4-0.8-5.1-0.7
	c-1.9,0.2-3.8,0.2-5.7,0.2c-1.7-0.2-3.3-0.1-5,0.1c-1.7,0.2-3.3,0.7-4.9,1.3c-0.5,0.2-0.9,0.5-1.4,0.7c-1.7,0.7-3.2,1.7-4.5,2.9
	c-0.5,0.4-1,0.8-1.3,1.4c-0.2,0.4-0.1,0.9,0.3,1.2c0.1,0,0.1,0.1,0.2,0.1c0.1,0.1,0.2,0.1,0.3,0.2h0.1c0.1,0.2,0.3,0.3,0.5,0.4
	l1.4,0.3l2,0.7c1.5,0.5,3,0.7,4.5,0.6c1.5,0,3.1,0.2,4.6,0.1c1.2-0.1,2.3-0.3,3.5-0.4h0.2c3.3-0.2,6.5-0.8,9.6-1.9h0.2
	c1.5-0.2,3-0.5,4.5-1c0.4-0.1,0.8-0.3,1.1-0.6c0.4,1.4,2.6,0.8,2.2-0.6l0,0c0.1-0.3,0-0.6-0.2-0.7c0,0,0.1-0.1,0.1-0.1
	C843.2,218,842.1,216.1,840.8,216.7z M830.9,218.6C830.9,218.6,830.9,218.6,830.9,218.6c0.1-0.3,0.1-0.5,0.1-0.7c0-0.1,0-0.2,0-0.2
	c0.1-0.5,0.1-1.1,0-1.6c0.8,0,1.5,0.1,2.3,0.2c1.6,0.4,3.1,1,4.4,1.8l0.3,0.2c-1.2,0.3-2.3,0.7-3.5,1.2c-0.4,0.1-0.9,0.2-1.3,0.2
	c-1,0.1-1.9,0.3-2.9,0.5C830.7,219.7,830.8,219.2,830.9,218.6L830.9,218.6z M817.5,217.1v0.3c0-0.3,0-0.5,0-0.8l0,0
	c0-0.2,0-0.3,0-0.5c0.7-0.1,1.4-0.2,2.1-0.3c0,0.2,0.1,0.4,0.1,0.6c0,0.1,0,0.2,0,0.3c0,0.2,0,0.4,0.1,0.6c0.1,0.5,0.4,1,0.9,1.1
	c0.4,0.1,0.8-0.1,1-0.4c0.1-0.1,0.1-0.3,0.1-0.5l0,0l0,0c0-0.1,0-0.1,0-0.2c0.1-0.1,0.1-0.3,0.2-0.5c0-0.2,0-0.5-0.1-0.7
	c0-0.2-0.1-0.4-0.2-0.5c0.5,0,1,0,1.5,0h0.4c0.6,0,1.2,0,1.9,0c1,0.1,2.1,0.1,3.1,0.1c0,0.1,0,0.2,0,0.3c0.1,0.3,0.2,0.7,0.2,1v-0.3
	c0,0.2,0.1,0.5,0.1,0.7c-0.1,0.3-0.1,0.7-0.1,1c0,0.2,0.1,0.4,0.2,0.6l0.1,0.1c-0.1,0.3-0.2,0.5-0.5,0.8c-1.3,1.2-3.6,0.9-5.2,1.1
	c-0.9,0.2-1.8,0.3-2.7,0.3c-0.8,0.1-1.7-0.1-2.4-0.4c-0.3-0.2-0.5-0.4-0.7-0.7c-0.1-0.5-0.2-1-0.4-1.5c0.2-0.2,0.3-0.4,0.3-0.7
	c0-0.1,0-0.3,0-0.4C817.6,217.6,817.5,217.4,817.5,217.1L817.5,217.1z M814.9,216.8c-0.1,0.6-0.1,1.2,0.1,1.8c0.1,0.3,0.3,0.7,0.4,1
	c0.2,0.8,0.6,1.5,1.2,2.2h-0.1c-1.1,0-2.1,0-3.2-0.2l-0.3-0.1c-0.3-0.1-0.7-0.2-1-0.3c-1-0.3-1.9-0.6-2.9-0.9
	c0.6-0.4,1.3-0.7,1.9-1.1C812.3,218.3,813.6,217.5,814.9,216.8L814.9,216.8z"/>
<path class="st3" d="M847,215.1c-3.5-1.7-6.9-3.8-10.7-5c-3.6-1.1-7.3-1.5-11-1.2c-3.6,0.2-7.2,1-10.5,2.6c-3.3,1.6-5.9,4.5-9.4,5.9
	c-1,0.4-0.5,2,0.4,1.6c3.1-1.3,5.6-3.4,8.4-5.2c3.3-2,7-3,10.8-3.1c3.7-0.2,7.4,0.1,11,1.2c1.8,0.6,3.6,1.4,5.2,2.3
	c1.6,1,3.3,1.8,5.1,2.4C847.2,216.7,847.8,215.5,847,215.1z"/>
<path class="st3" d="M847.8,224.6c-5.8,1.6-11.7-0.7-17.6-0.5c-1.5,0.1-3,0.3-4.5,0.5s-3,0.2-4.5,0.3c-1.4,0.1-2.9,0-4.3-0.2
	c-1.1-0.2-2.3-0.2-3.4,0c-1.2,0.3-0.7,2.1,0.5,1.8c1.3-0.2,2.6-0.1,3.8,0.1c1.4,0.1,2.9,0.1,4.3,0c3.1-0.2,6.1-1,9.2-0.9
	c3,0.2,6.1,0.5,9.1,1c2.7,0.4,5.6,0.8,8-0.6c0.4-0.3,0.5-0.8,0.2-1.2C848.4,224.7,848.1,224.5,847.8,224.6z"/>
<path class="st2" d="M810.2,259.3c-0.1-0.2-0.3-0.4-0.6-0.4c-1.2-2.6-2.8-5-4-7.7s-2.6-5.4-4-8.1c-0.7-1.3-1.3-2.7-1.9-4.1
	c-0.8-1.3-1.5-2.8-2-4.2c-0.1-0.4-0.5-0.6-0.9-0.5c-0.4,0.1-0.6,0.5-0.5,0.9c0.6,2.5,2.1,4.8,3.1,7.1c1.2,2.6,2.5,5.1,3.7,7.7
	s2.4,5,3.8,7.4c0.8,1.3,1.4,2.6,1.7,4c0.1,1-0.1,2.1-0.6,3l-0.2,0.2l-0.2,0.1c-0.2,0.1-0.4,0.2-0.6,0.3h0l0,0l-0.3,0.1h-0.2h-0.1
	H806l0,0c-0.3-0.1-0.6-0.2-0.8-0.3c-0.4-0.5-0.6-1.1-0.6-1.8c-0.5-0.6-1.1-0.9-1.8-1.1c-1.9-0.4-3.9-0.2-5.7,0.6l-0.4,0.2
	c0-0.4-0.4-0.6-0.7-0.6c-0.1,0-0.2,0-0.3,0.1c-2.2,1.2-3.5,3.2-4.8,5.2c-0.7,1.1-1.5,2-2.4,2.8c-2,1-4.4,1-6.3,0
	c-0.1-0.1-0.3-0.1-0.4-0.1c-0.3-0.7-0.7-1.3-1.2-1.9c0.1-0.2,0.1-0.4,0-0.6c-0.8-1.8-2.5-3.1-4.4-3.6l0,0c-0.1-0.3-0.5-0.5-0.8-0.5
	c-0.3,0-0.7,0.1-1,0.2c-1.9,0-3.7,0.2-5.5,0.7c-0.4,0.1-0.6,0.5-0.5,0.8c0,0.1,0,0.2,0.1,0.2l-0.8,0.4c-0.2,0.1-0.4,0.4-0.4,0.6
	c-2.3-2.7-0.5-7,0.3-10s1.3-5.9,1.8-8.8c0,0,0-0.1,0-0.1c0.4-1.7,0.8-3.5,1-5.3c0-0.1,0-0.1,0-0.2c0,0,0-0.1,0-0.1c0.3-2,0.6-4,1-6
	c0.2-0.9-1.2-1.3-1.4-0.4c-0.5,2.1-0.8,4.2-1,6.3c-1.3,5.2-1.8,10.5-3.3,15.6c-0.9,3.2-1.9,7.5,0.8,10.2c0.2,0.3,0.6,0.3,0.9,0
	c0,0,0.1-0.1,0.1-0.1c0.3,0.3,0.7,0.3,1,0.1c0.6-0.5,1.3-0.8,2.1-1.2c0.2,0.1,0.4,0.1,0.5,0c0.3-0.2,0.6-0.3,0.8-0.4
	c1.2-0.3,2.5-0.2,3.7,0.3c1.1,0.5,2,1.2,2.8,2c0.8,1.1,1.6,2.2,2.3,3.4c0.3,0.4,0.7,0.4,1.1,0.2c1.3,0.5,2.6,0.8,4,0.6
	c0.2,0.1,0.4,0.1,0.6,0.1c4.2-0.6,5.6-4.8,8.2-7.7c0.3,0.3,0.8,0.3,1.1,0l0.1,0l0,0c0.1-0.1,0.1-0.1,0.2-0.1l0.4-0.3
	c0.3-0.1,0.7-0.4,0.9-0.4c0.8-0.3,1.6-0.6,2.4-0.7c0.8-0.2,1.5-0.2,2.3-0.1c0.6,0.1,1.1,0.3,1.5,0.7c0.2,0.2,0.4,0.5,0.4,0.7
	c-0.1,0.1-0.2,0.2-0.2,0.3c-0.2,0.4-0.1,1,0.3,1.2l0,0c0,0.4,0.3,0.6,0.7,0.6c0.1,0,0.2,0,0.3-0.1c0.4,0.2,0.9,0.3,1.4,0.4
	c0.9,0.1,1.8-0.2,2.4-0.9c1.3-1.1,2-2.7,2-4.4C810.7,261,810.6,260.1,810.2,259.3z"/>
<path class="st4" d="M949.6,517.6c-1.2-10.8-3.6-21.4-7.1-31.6c-3.5-10.5-7.5-20.9-10.6-31.6s-3.7-21-3.6-32
	c0.1-10.4,0.2-21.1-3-31.1s-8.5-19.4-13.6-28.6c-2.6-4.6-5.3-9.1-6.7-14.2c-1.2-4.6-1.8-9.4-1.8-14.2c-0.1-2.6,0-5.2,0-7.9
	c0.2-4.2,0.7-8.4,0.1-12.5c0.1-0.9,0.2-1.8,0.4-2.7c0.1-0.3-0.1-0.5-0.4-0.6c0,0,0,0,0,0c0.1-0.2,0.3-0.4,0.5-0.6
	c0.2-3.1,0.3-6.1,0.5-9.2c0.6-11.3,1.5-22.9,0.5-34.2c-0.9-10.7-5.1-20.4-8.3-30.5c-3.3-10.4-6.1-21-9.8-31.3
	c-3.8-10.5-7.4-21.1-11.6-31.5c-7.4-18.3-16.4-36.5-28.2-52.5c-5.9-7.8-12.4-15-19.4-21.8c-6.8-6.7-14.4-14.7-23.6-18
	c-8.5-3.1-17.1-0.2-25.2,2.8l0,0c-0.3-0.4-0.8-0.7-1.3-0.7c-1.7-0.1-3.3-0.3-5-0.4c-0.4,0-0.8,0.2-1.1,0.4c0,0.1-0.1,0.1-0.1,0.2
	c-27.4-4.1-52.5,13-67.8,34.8c-9.2,13.1-14.6,28-17.6,43.6c-1.7,8.7-2.8,17.6-4.3,26.3c-1.6,9.1-3.7,18.1-5.6,27.2
	c-1.9,8.8-3.3,17.8-4.2,26.7c-0.7,8.6-1.9,17.1-3.5,25.5c-3.6,16.7-12,31.8-16.9,48.2c-5,16.6-4.2,33.3-1.9,50.4
	c2.4,17.5,6.4,34.9,6.4,52.7c0,18.5-4.4,37.1-8.2,55.1c-1.9,8.7-3.1,17.5-3.6,26.3c-0.6,9-0.4,18.2-1.7,27.1
	c-1.2,8.2-3.9,16-6.3,23.9c-2.3,7.7-3.8,15.7-4.3,23.8c-1,15.4-3.3,31.1-0.4,46.4c1.3,6.9,4.2,13.4,8.6,19
	c4.3,5.7,9.6,10.5,14.2,15.9c5.1,6.1,8.2,13.5,13.4,19.5s12.7,9.3,19.5,13c6.2,3.3,12.6,8.5,20,8.2c8.1-0.4,13.1-6.3,19.5-10.2
	c5.9-3.6,13.2-2.8,19.2-6.2c2.9-1.7,5.2-4.1,6.8-7.1c1.8-3.5,4.1-6.7,6.7-9.6c4.4-4.7,8.7-11.3,9.4-17.9c0.6-5.6-2.2-10.5-5.2-15
	c-2.2-3.2-4.7-6.2-6.7-9.6c-2.1-3.7-3.8-7.6-5.2-11.7c-3-7.9-6.6-15.6-10.7-22.9c-4.5-7.9-8.3-15.8-10.6-24.7
	c-2.2-8.2-3.3-16.7-4.8-25.1c-1.3-7.6-3.1-15.2-2.9-23c0.2-7,2.4-13.5,5.2-19.9c2.4-5.4,6-10.6,8.3-16.2c0.6,1,1.2,2.1,1.9,3.1
	c-0.2,0.4-0.2,0.8-0.1,1.2c2.1,7,4.7,13.7,6.8,20.7c2.1,7.1,3.4,14.4,3.9,21.8c0.7,7.7,1,15.5,1.5,23.2c0.4,7.2,1.5,14.5,1.3,21.7
	c-0.1,4.2-0.7,8.3-0.5,12.5c0.1,4.4,0.7,8.7,1.7,13c0.3,1,1.4,1.6,2.4,1.3c0.6-0.2,1.1-0.7,1.3-1.3c2.4-8.8,2.4-18.3,2.3-27.4
	c-0.1-10.2-0.3-20.3-0.7-30.5c-0.4-11.4-0.3-22.7,1.4-33.9c0.8-5.6,1.9-11.2,2.9-16.8s2.1-11.1,2.5-16.7c0.7-8.9,0-17.7-0.5-26.6
	l0,0c0.3-1,0.6-2.1,0.8-3.2c0.2-1,0.8-1.9,1.6-2.5c-1.2-4.2-1.9-8.6-2.1-13c-0.4-7.8-1.7-15.6-3.9-23.1c-1.3-4.3-2.3-8.6-3-13
	c-0.6-4.9-0.7-9.8-0.5-14.6c0.2-9.4,0.9-18.8,0.1-28.2l2.3,1.5c1.4,0.9,3,1.8,4.5,2.5c0.1,0.3,0.3,0.7,0.4,1
	c0.1,0.3,0.5,0.4,0.7,0.3c0.3-0.1,0.4-0.5,0.3-0.7l0,0c1.2,0.4,2.6,0.4,3.8,0c8.2,0.1,16.4,0.8,24.6,0.4c3.7-0.2,7.5-0.3,11.2-0.7
	c1.8-0.2,3.7-0.4,5.5-0.8c0.9-0.2,1.8-0.4,2.8-0.7c0.7-0.2,1.5-0.6,2.2-0.8c0.9,0.2,1.8-0.1,2.4-0.9c9-3.4,15.8-11.4,21.4-19
	c1.3-1.8,2.8-3.4,4.1-5c0.8-0.9,1.5-1.9,2.3-2.9c-1.5,2.8-3.1,5.6-4.4,8.5c-0.6,1.4-1.2,2.8-1.7,4.2c-4.3,6.5-8.1,13.6-10,21.2
	c-2.5,10-1.1,20.6-0.2,30.7c1,11.3,1.5,22.4-1.9,33.4c-2.8,9-5.7,17.8-6.2,27.3c-0.6,10.7-0.2,21.5,1.2,32.2
	c0.8,5.5,2,10.9,2.3,16.5s0.1,11.1,0,16.6c-0.1,11,3.1,22,2,33c-0.5,5.3-2.7,10.4-3.5,15.7c-0.7,5,0.2,9.4,1.7,14.2
	c2.9,10.2,4.6,20.7,5,31.3c0.3,4.8,0.2,9.7,0.6,14.5c0.5,5,0.8,10,0.7,14.9c-0.4,10.3-5.7,19.5-8.9,29c-2.6,7.3-3.4,15.1-2.4,22.8
	c1.8,13.7,8.7,28.6,22.6,33.5c8.3,2.9,14.9-1,21.7-5.4c8.3-5.3,18-7.8,26.2-13.1c7.2-4.7,14.7-9.3,21.1-15.1
	c6.1-5.5,8.9-12.7,10.9-20.5c5.1-19.5,5.7-40.1,12.1-59.3c2.5-7.5,7.9-13.5,9.7-21.3c2.4-10.8,4.1-21.8,5-32.8
	C950.5,540.4,950.6,529,949.6,517.6z M764,345.9c-1-0.5-2-1.1-2.9-1.7c-3.2-2-6.4-4-9.4-6.3c-7.6-5.7-13.5-12.9-18.7-20.7
	c-0.9-1.4-1.8-2.8-2.6-4.2c-1.2-3.1-2.7-6.1-3.4-9.3c-0.7-3.5-0.9-7.2-1.3-10.7c-0.9-7.3-2.4-14.5-3.8-21.7
	c-0.1-0.7-0.2-1.4-0.3-2.1c0,0,0.1,0,0.1,0c1-0.7,2.1-1,3.3-1c1,0.1,2,0.6,2.8,1.3c2,1.9,3.5,4.2,4.4,6.7c1.1,2.6,2,5.2,2.8,7.9
	c0.8,2.6,1.5,5.4,3.4,7.5c0.3,0.3,0.6,0.6,0.9,0.9c0,0.1,0.1,0.3,0.2,0.3l0.1,0.1l0,0h0c1.4,1,3,1.9,4.6,2.5
	c1.7,0.8,3.5,1.1,5.3,0.9c0.2,0,0.3-0.1,0.3-0.3c0.1,0.1,0.2,0.2,0.3,0.3h-0.1c-0.4-0.1-0.9,0.1-1,0.6c-0.1,0.4,0.1,0.9,0.6,1l0,0
	c5.5,1.4,11.1,1.9,16.5,3.5c5,1.7,10.3,2.4,15.5,2.2c5.5-0.5,10.9-1.4,16.3-2.6c5.4-1.1,10.8-2.2,16.2-3.5c5.2-1.2,9.3-4.9,14.4-6.4
	c0.4-0.1,0.6-0.4,0.5-0.8c0,0,0,0,0,0h0.2c0.2,0,0.4-0.1,0.6-0.3c0-0.1,0.1-0.2,0.1-0.3c2.2-0.1,4.4,0,6.6,0.5c1,0.1,2,0.5,2.8,1
	c0.3,0.2,0.5,0.4,0.8,0.6v0.1c0.2,0.4,0.4,0.8,0.6,1.2c1.6,4.4-1.5,8.8-4.3,11.8c-2.8,2.8-6.1,5.1-9.7,6.8
	c-3.6,1.7-7.4,3.2-11.2,4.4c-8,2.6-16.2,4.5-24.1,7.4c-3.9,1.3-7.7,3-11.3,5c-3,1.6-5.7,3.5-8.2,5.8c-2.2,2.1-4.1,4.4-5.8,7
	C765.3,342.7,764.5,344.2,764,345.9z M780.2,294c9.7,0.4,18.9-2.7,28.5-3.1c5.2-0.2,10.4,0.1,15.6,0c-2.9,1.2-5.5,2.9-8.5,4
	c-2.4,0.8-4.9,1.4-7.4,1.9c-2.7,0.6-5.3,1.3-8,1.8c-5.4,1.2-10.9,2.1-16.3,2.8c-5.3,0.6-10.7,0.2-15.9-1.3c-2.9-0.9-5.9-1.6-8.8-2.1
	c-3-0.5-6-0.9-8.9-1.6h0.1C760.6,296.4,770.2,293.5,780.2,294z M752.3,294.7c8.8-2.7,17.3-6.8,26.6-7.7c2.8-0.3,5.7-0.2,8.5,0.2
	c2.3,0.2,4.6,0,6.8-0.6c5.8-1.2,11.6-0.6,17.4,0.5c2.8,0.5,5.5,1.3,8.2,2c-2.9,0-5.8-0.1-8.7,0c-4.8,0.1-9.6,0.6-14.3,1.5
	c-4.7,1-9.5,1.6-14.3,1.8c-2.5,0-5-0.1-7.5,0s-4.8,0.4-7.3,0.7C762.5,293.6,757.4,294.5,752.3,294.7L752.3,294.7z M837.1,323.7
	c-1.3,1.7-2.7,3.3-4.1,5c-1.5,1.9-3.2,3.6-4.8,5.4c-3.4,3.4-7.3,6.7-11.9,8.3c-0.6,0.2-1.1,0.6-1.3,1.1c-0.3,0.2-0.5,0.4-0.7,0.6
	c-0.6,0.2-1.3,0.4-1.9,0.5c-0.8,0.2-1.7,0.4-2.6,0.5c-1.8,0.3-3.6,0.6-5.5,0.7c-3.6,0.3-7.3,0.5-10.9,0.6
	c-8.7,0.2-17.3-0.5-25.9-0.5c-0.7,0-1.3,0.3-1.6,0.9l-0.5-0.2l0,0c0.4-1.4,1-2.7,1.7-3.9c1.6-2.7,3.6-5.1,5.8-7.3
	c2.4-2.3,5.1-4.2,8.1-5.8c3.8-2,7.7-3.8,11.8-5.1c8-2.8,16.4-4.7,24.4-7.5c7.5-2.6,15.6-5.5,21-11.7c2.8-3.2,5.5-7.6,4.2-12
	c-0.1-0.3-0.2-0.6-0.3-0.9c0.3-0.9-0.5-1.6-1.2-2.1l-0.2-0.1c-0.2-0.2-0.4-0.4-0.6-0.6l0.2,0.4c-0.8-0.4-1.6-0.7-2.4-0.9
	c-1.3-0.2-2.7-0.4-4.1-0.5c-1.3-0.1-2.7-0.1-4,0.1h-0.2c-5.7,0-11.1-2.1-16.7-3.2s-11-1.8-16.5-1c-2.5,0.3-5,1.2-7.5,1.2
	c-1.3,0-2.6-0.4-3.9-0.5c-1.5-0.1-3-0.1-4.4,0c-5.4,0.6-10.7,1.9-15.7,3.7c-5.7,2-11.3,4.2-17.2,5.6h-0.2c-1-0.4-2-0.7-3-1
	c-1.3-0.3-2.5-1-3.6-1.9c-0.1-0.1-0.3-0.2-0.5-0.1c-0.1-0.1-0.3-0.2-0.4-0.4c-2.1-2-2.7-4.8-3.6-7.5c-0.9-2.8-1.9-5.5-3.1-8.1
	c-1.1-2.6-2.6-4.9-4.7-6.8c-1-0.8-2.1-1.4-3.4-1.6c-1.3-0.1-2.6,0.2-3.8,1c-1-5.9-1.6-11.9-2.2-17.8c-0.6-7.1-0.9-14.3-0.8-21.4
	c0.1-7.1,0.6-14.1,1.5-21.1c0.3-2,0.7-4,1-6c0.1,0,0.2,0,0.3,0c0.7-0.2,1.5-0.3,2.2-0.4c0.3,0.2,0.7,0.2,1.1,0.1
	c3.3-1,6.6-1.7,10.1-2c3.4-0.2,6.7,0.1,10.1,0.1c3.4,0.2,6.8,0.6,10.1,1.3c3.3,0.6,6.8,1.8,10.1,0.7c0.1,0,0.2-0.1,0.4-0.2
	c0.2,0,0.4-0.1,0.6-0.2c1.3-0.6,2.6-1.2,3-2.7c0.3-1.6,0.1-3.3-0.7-4.8c-0.7-1.7-1.6-3.3-2.6-4.9c-0.8-1-2-1.7-3.3-1.9
	c-2.1-0.5-4.2-1.1-6.3-1.6c-2.1-0.4-4.3-0.6-6.4-0.4c-2.2,0-4.3-0.4-6.5-0.4c-1.9,0-3.9,0-5.8,0.1h-0.8c-0.6-4.5-0.3-9-0.5-13.5
	c-0.1-2.7-0.4-5.4-0.9-8c-0.6-2.6-1.4-5.2-2.2-7.8c-1-2.9-1.8-5.9-2.4-8.9c-0.1-0.7-1.2-0.4-1,0.3c1,5.4,3.1,10.4,4.4,15.7
	s1,10.8,1.2,16.3c0,2,0.2,4,0.5,5.9c-3.8,0-7.6,0.5-11.3,1.6c0.7-3.3,1.2-6.7,1.5-10.1c0.3-3.7,0.3-7.4,0.5-11.1
	c0.2-6.8,1.1-13.5,2.8-20.1c0.8-3,2-5.9,3.5-8.7c1.7-3,3.7-5.8,5.6-8.7s4-5.6,7.1-7.3s6.6-2.7,9.8-4.3c0.4,0.3,0.9,0.4,1.4,0.3
	c7.5-1.4,15.1,0.9,22.6,0c3.5-0.4,7-1.1,10.5-1.3c1.7-0.1,3.4-0.1,5.1,0.1c2,0.2,3.9,0.7,5.8,0.9c0.3,0,0.7,0,0.9-0.2
	c0.1,0.6,0.6,1.1,1.1,1.2c5.3,2,9,6.8,12.6,10.9l0.5,0.5c-4.7-0.9-9.6-0.7-14.2,0.6c-5.2,1.4-10.2,3.8-15.1,6
	c-5.2,2.4-10.4,4.6-16,5.5c-6.7,1.1-13.5,0.5-20.2,0.4c-6.9-0.2-14.4-0.1-20.4,3.7c-0.5,0.3,0,1.1,0.4,0.8
	c5.4-3.4,11.9-3.5,18.1-3.4c6.6,0.1,13.3,0.9,19.9,0.1c5.7-0.8,11.3-2.4,16.5-4.8c4.9-2.1,9.7-4.6,14.8-6.2c2.8-0.9,5.6-1.6,8.5-1.9
	c3-0.2,6,0,9,0.7c3.7,3.9,7.8,7.5,11.2,11.6c2,2.4,3.6,5,5.6,7.4s4,4.6,5.8,7.1c3.6,4.7,6.3,10.1,8,15.8c1.5,5,2.4,10.1,2.8,15.3
	c-0.6-0.2-1.2-0.5-1.8-0.8c-2-1-4-2.1-6.1-3c-3.7-1.7-7.6-2.7-11.7-3.1c-8.3-0.6-16.7,0.8-24.3,4.1c-4.3,1.7-8.3,4-12,6.7
	c-0.3,0.2-0.5,0.5-0.6,0.9c-1.1-0.1-2.4,0.9-1.9,2.1c1.1,3,2.6,5.8,4.5,8.4c0.9,1.2,2.1,2.4,3.8,2.3c1.9-0.2,3.3-1.8,4.7-2.9
	c2-1.4,4.1-2.5,6.3-3.4c2.3-1.1,4.7-2,7.2-2.8c5-1.5,10.3-2.1,15.5-1.8c2.8,0.1,5.7,0.6,8.4,1.5c2.7,0.9,5.2,2.4,7.2,4.4
	c0.4,0.5,1.1,0.7,1.7,0.5c0.3,3.9,0.6,7.8,1.2,11.7c1.1,7,3.2,13.8,5,20.6c0.5,1.9,1,3.7,1.4,5.6c-2.3,0.8-4.6,1.8-6.9,2.7
	c-1.6,0.6-3.2,1.2-4.8,1.7c-1.8,0.5-3.7,0.9-5.5,1.1c-3.6,0.5-7.2,0.7-10.8,0.5c-3.7-0.3-7.3-1-10.8-2c-5.9-1.6-11.5-4-16.8-7.1
	c-2.6-1.5-5.1-3.2-7.6-5.1c-2.6-1.8-5.1-4-7.3-6.3c-3.7-4.3-5.5-9.9-6-15.5c-0.3-3-0.3-6-0.1-8.9c0.1-2.9,0.6-5.8,1.4-8.6
	c1.5-4.8,4.3-9.1,8-12.4c4-3.5,8.5-6.5,13.2-8.9c4.9-2.6,9.9-4.7,15.2-6.3c5.4-1.6,11.2-2.9,16.8-2.3c1.2,0.1,2.3,0.4,3.5,0.7
	c0.6,0.2,0.9-0.8,0.3-1c-5.3-1.6-11.1-0.8-16.4,0.5c-5.7,1.4-11.3,3.4-16.6,6c-4.9,2.2-9.5,5-13.8,8.2c-4.2,3.1-7.5,7.1-9.8,11.8
	c-2.5,5.3-3,11.2-2.9,17s0.9,11.7,3.8,16.8c1.5,2.6,3.5,5,5.9,6.9c2.5,2.1,5,4,7.6,5.9c5.1,3.5,10.7,6.4,16.6,8.4
	c6.8,2.4,13.9,3.9,21.1,3.6c3.8-0.1,7.6-0.7,11.2-1.7c3.4-1.1,6.7-2.4,10-3.8c0.6-0.2,1.3-0.5,1.9-0.7c1.2,4.7,2.3,9.4,3.2,14.1
	c0.7,3.6,1.1,7.2,1.2,10.8c0.1,3.8-0.2,7.5-0.3,11.3c-0.1,2.7-0.4,5.5-1,8.2c-1,2.6-2,5.1-3,7.7c-0.4-0.1-0.8-0.2-1.2-0.4
	c0,0.1,0,0.2-0.1,0.3c-0.3,0.9-0.6,1.8-1,2.7c-0.9,1.9-1.9,3.8-3,5.7c-2.4,4.1-4.8,8.1-7.6,11.9
	C843.3,315.6,840.1,319.6,837.1,323.7L837.1,323.7z M721.8,197.8c0.6-2.7,1.2-5.4,1.8-8.1c0.3,0.1,0.6,0.1,0.9,0
	c0.7-0.2,1.5-0.4,2.3-0.5c0.1,0,0.3-0.1,0.4-0.1c0.2-0.1,0.3-0.2,0.5-0.3c0.1-0.1,0.1-0.2,0.2-0.2c2.8-0.5,5.6-0.8,8.4-0.8
	c0.2,0.2,0.4,0.2,0.6,0c0,0,0,0,0,0h0.7c2.2,0,4.3-0.1,6.5,0s4.6,0.4,6.9,0.3c2.4,0,4.7,0.4,7,1.1c1.1,0.3,2.1,0.6,3.2,0.9
	c0.5,0.1,1,0.2,1.6,0.3c0.5,0.4,1,1.9,1.2,2.5c0.4,1,0.7,2,1.1,3c0.2,0.5,0.7,1.3,0.4,1.9c-0.1,0.3-0.7,0.7-1,1
	c-3.5,0.4-6.8-0.5-10.2-1.1c-3.4-0.6-6.8-1-10.3-1.2c-3.4-0.2-6.7-0.2-10.1-0.1c-3.1,0.2-6.1,0.7-9.1,1.6c-0.3-0.2-0.6-0.3-0.9-0.3
	C723.3,197.6,722.5,197.6,721.8,197.8z M850.7,191l0.1,0.1c0.1,1.4,0.2,2.8,0.3,4.2c-0.3,0-0.7,0-1,0.2c-1.4-1-2.8-1.9-4.3-2.7
	c-2.3-1.1-4.7-1.9-7.2-2.2c-5.2-0.8-10.5-0.7-15.6,0.1c-5.1,0.8-10,2.5-14.5,4.9c-2,1-4,2.2-5.8,3.5c-0.7,0.6-1.5,1.1-2.2,1.6
	l-0.1,0.1c-0.4-0.4-0.8-0.8-1.2-1.3c-0.6-0.8-1.1-1.6-1.6-2.5s-1-1.8-1.5-2.8c0.2-0.1,0.3-0.1,0.5-0.2c11.9-8.9,28.6-13.4,43-8.4
	c2.1,0.8,4.1,1.8,6.2,2.8c1,0.5,2,1,3,1.4C849.3,190.1,850,190.5,850.7,191z M939.8,583.2c-1.7,7.5-6.8,13.2-9.3,20.4
	c-3.5,10.1-5.4,20.7-7.1,31.2c-1.5,8.9-2.7,18-4.8,26.8c-1.8,7.8-4.1,15.1-10.1,20.7c-6.2,5.8-13.7,10.3-20.8,14.8
	c-8.2,5.2-17.9,7.4-26.1,12.7c-3.2,2-6.3,4.4-10,5.2c-3.9,0.9-7.9-0.3-11.3-2.3c-6.1-3.6-10.2-9.8-12.7-16.3
	c-2.5-6.7-3.5-13.8-2.9-20.9c0.9-9.3,5.5-17.8,8.7-26.5c3.4-9.3,3.3-18.1,2.5-27.8c-0.8-9.4-0.8-18.9-2.2-28.3
	c-0.7-4.9-1.5-9.7-2.4-14.5c-1-5-3.3-9.8-3.5-14.9c-0.1-5.4,2.1-10.5,3.2-15.7c0.9-4.9,1.1-9.9,0.5-14.8c-0.5-5.4-1.4-10.7-1.7-16.1
	s0-10.7,0.1-16c0.1-10.7-2.3-20.8-3.2-31.4c-0.8-10.3-1.4-21.3,0.4-31.5c1.7-9.4,5.8-18.2,7.3-27.6c1.6-10.4,0.4-20.9-0.5-31.4
	c-0.8-9.6-1.4-19.2,1.8-28.4c0.7-2.1,1.6-4.2,2.6-6.1c0.1,0.1,0.3,0.1,0.5,0.1c0.9,0.1,1.7-0.4,1.9-1.2c1.5-3.7,3.1-7.4,4.8-11
	l1.1-1.6l-0.2-0.2c1.8-3.7,3.7-7.3,5.7-10.9c1.9-3.2,3.7-6.5,5.4-9.8c0.2-0.2,0.4-0.5,0.7-0.7L858,309c0.2-0.3,0.3-0.6,0.4-0.9
	c2-4.1,3.6-8.4,5.2-12.7c1.8-4.9,3.1-9.9,4.8-14.8c0.4-1,0-2.2-1.1-2.6c-0.1,0-0.2-0.1-0.3-0.1c0.7-6.4,0.8-12.9,0.2-19.3
	c-1.1-7.1-2.5-14.2-4.4-21.2c-1.7-7-4-14-5.6-21c-3.1-14-1.7-28.5-5-42.4c-1.4-5.9-3.8-11.6-7.1-16.7l-0.6-0.9
	c0.7,1,1.5,1.9,2.2,2.8c4.3,5.5,8.8,10.9,11.6,17.3c2.6,6.2,4.4,12.7,5.5,19.3c1.2,6.7,2,13.4,2.9,20.1c1,8.3,1.8,16.7,2.5,25
	s1.4,16.4,3.9,24.3c2.3,7.5,5.4,14.8,7.5,22.4c2,7.4,3.3,15,3.8,22.7c0.1,2,0.2,4,0.2,6.1c0.1,0.7,0.7,1.3,1.4,1.2
	c0.6-0.1,1.1-0.6,1.2-1.2c0.4-7.9-0.3-15.8-2-23.5c-1.7-7.7-4.4-15.1-7-22.5c-1.4-3.8-2.6-7.7-3.5-11.7c-0.8-4.1-1.4-8.2-1.7-12.4
	c-0.8-8.4-1.5-16.9-2.4-25.3c-0.8-7.2-1.6-14.4-2.8-21.5c-1-6.8-2.6-13.5-4.8-20.1c-1.1-3.1-2.5-6.1-4.1-9c-1.8-3-3.8-5.8-6-8.5
	c-4.5-5.9-9.5-11.4-13.3-17.8c-6.7-11.1-9.7-24.3-18.5-34.2c-1-1.2-2.2-2.3-3.4-3.3c-1.2-1-2.9,0.7-1.7,1.7
	c9.9,8.4,13.3,21.6,18.8,32.8c1.7,3.5,3.8,6.8,6.1,9.9c-2.4-3-5-6-7.2-9.2c-4.1-6.1-9.8-10.6-14.8-15.9c-4.2-4.5-8.2-9.4-13.9-11.9
	l-0.4-0.3c-0.8-0.6-1.8-0.9-2.8-1l-0.1-0.1c-3.2-1.9-7.8-2.1-11.4-1.8s-7.3,1-11,1.6c-7.8,1.3-15.6-1-23.3,0.3
	c-0.6-0.5-1.4-0.6-2-0.2c-3,1.6-6.4,2.5-9.4,4.1c-2.9,1.5-5.3,3.7-7.2,6.3c-1.8,2.5-3.4,5.2-5.2,7.7c-1.7,2.4-3.2,5-4.4,7.8
	c-2.5,6-4.1,12.4-4.7,18.9c-0.8,7.3-0.5,14.7-1.5,22s-3.1,14.5-4.4,21.8c-1.2,7.1-2.1,14.2-2.6,21.4c-0.5,7.3-0.5,14.7,0,22
	c0.4,7.2,1.2,14.3,2.4,21.4c1.5,8.2,3.1,16.3,4.4,24.5c0.3,2.1,0.8,4.1,1.1,6.2s0.5,4.2,0.9,6.3c0.4,2,0.9,3.9,1.7,5.7
	c0.4,1,0.9,2,1.4,2.9l-0.4,0.2c0.8,1.8,1.8,3.6,3,5.2c2.9,4.2,6.2,8.3,9.3,12.4c4.5,5.6,10,10,15.9,13.9c-0.8,0.3-1.2,1.1-1.1,1.9
	c1.3,15.1-1.8,30.3,0.6,45.3c1.1,7.1,3.6,13.9,5.1,20.9s1.1,14,2.3,21c-0.1,0.2-0.2,0.4-0.2,0.6c-0.5,10.8,0.9,21.6,0.6,32.4
	c-0.3,11.2-3,22.1-4.8,33c-0.9,5.5-1.7,11-2.1,16.6c-0.4,5.7-0.4,11.4-0.3,17.1c0.2,10.4,0.3,20.8,0.5,31.1
	c0.2,6.6,0.1,13.2-0.3,19.8c0-0.2,0-0.4,0-0.6c-0.2-3.8,0.3-7.4,0.3-11.2c0.1-7.2-0.7-14.4-1.2-21.5c-1-15.2-0.7-30.7-4.8-45.4
	c-1.9-6.7-4.3-13.1-6.5-19.7c0.1-0.5,0.2-0.9,0.4-1.4c0-0.8,0.1-1.6,0.2-2.4c-2.2-3-4-6.2-5.5-9.6c-0.7-1.7-3.4-1.1-3.8,0.5
	c-0.9,3.7-2.9,7.1-4.8,10.4c-2.1,3.7-4,7.5-5.6,11.4c-2.6,5.7-4.2,11.7-4.9,17.9c-0.6,6.7,0.5,13.4,1.7,19.9
	c1.5,8.1,2.7,16.3,4.3,24.5c1.5,8,4.1,15.8,7.5,23.2c3.6,7.7,8.4,14.7,11.8,22.5c3.2,7.2,5.2,15,9.1,21.9c3.3,5.8,8.9,10.8,11,17.3
	c2,6.1-1.7,12.2-5.2,17c-2.1,3-5,5.3-6.9,8.5s-3.1,6.9-6.2,9.5c-5.1,4.2-12.6,3.3-18.5,6c-6.8,3.1-11.9,10.3-19.9,10.7
	c-3.5,0.2-6.6-1.4-9.6-3c-3.6-2-7.2-4.1-10.8-6c-7.4-3.9-14-7.8-18.8-15c-4.1-6.3-7.7-12.6-12.7-18.2c-4.6-5.1-9.6-10-13.3-15.8
	c-8.2-12.6-7.1-28.9-6.2-43.2c0.5-7.4,0.8-14.8,1.5-22.2c0.8-8.1,3.4-15.8,5.8-23.5c2.5-7.6,4.1-15.5,4.9-23.5
	c0.6-8.8,0.8-17.5,1.5-26.3c1.4-17.8,6.3-35,9.1-52.6c1.5-8.4,2.2-17,2.3-25.5c-0.1-8.3-0.8-16.6-2.1-24.8
	c-2.4-17-6.5-33.7-6.8-50.9c-0.3-17,5.8-32.4,12.2-47.8c3.3-7.6,6-15.4,8-23.4c1.7-7.7,2.9-15.4,3.6-23.2c0.9-8.9,1.9-17.7,3.7-26.5
	s3.8-17.4,5.5-26.1c3.4-17,4.8-34.4,10.3-51c8.7-26,30.3-51.1,58.2-56.5c6.1-1.2,12.3-1.2,18.3-0.2c0.1,0.1,0.1,0.2,0.2,0.3
	c0.4,0.3,0.8,0.5,1.3,0.5c2,0.1,4,0,6-0.4c0.3-0.1,0.6-0.2,0.8-0.4c9.2-3.3,18.2-6.2,27.3-0.6c8.7,5.4,15.9,13.2,23.1,20.5
	c13.5,13.7,23.3,30.1,31.7,47.3c9.3,19.1,16.5,39.1,23.1,59.2c3.3,10.1,5.5,20.5,9.1,30.4c1.8,4.8,3.3,9.8,4.6,14.8
	c1.1,5.4,1.7,10.8,1.6,16.3c0.3,21.5-3.6,43.2-1.7,64.6c1.7,20.1,17.1,35.3,22.6,54.4c2.9,10.2,2.4,21,2.3,31.6
	c-0.2,10.1,1,20.1,3.6,29.9c5.8,20.5,15.1,39.9,17.5,61.2C946.8,538.8,944.5,561.8,939.8,583.2L939.8,583.2z"/>
<path class="st1" d="M818.5,369.2c-0.3,0-0.5,0.2-0.5,0.5s0.2,0.5,0.5,0.5s0.5-0.2,0.5-0.5S818.8,369.2,818.5,369.2z"/>
<path class="st3" d="M765.3,98.7c-4.7-1.3-9.6-1.5-14.4-0.6c-0.3-0.2-0.7-0.3-1.1-0.2c-28.1,7.2-42.3,35.7-50,61.2
	c-10.4,34.1-11.8,69.9-14.1,105.2c-0.7,10.8-1.3,21.4-4.5,31.9c-2.9,9.4-6.8,18.4-9.4,27.8c-2.8,10-3,19.8-2,30.1
	c1.1,11.1,3.2,22.1,3.2,33.3c0.1,23.3-0.2,46.5-3.8,69.6c-1.8,11.3-4.1,22.5-5.9,33.8c-1,5.4-1.6,10.9-1.8,16.4
	c-0.1,5.9,0.3,11.9-0.1,17.8c-0.4,5.5-2,10.8-3.4,16c-1.4,5.3-2.6,10.6-3.4,16c-1.9,10.9-3,21.9-3.4,32.9
	c-0.3,9.7,0.2,19.5,0.7,29.2c0.4,8.6,1.3,17.5,4.4,25.6c1.4,3.6,3.4,7,5.8,10.1c0.9,1.1,2.8-0.4,2-1.5c-10.9-14.1-9.3-33.7-10-50.5
	c-1-22.1,2.4-44,8.1-65.3c1.4-4.8,2.2-9.7,2.4-14.6c0.2-5.8-0.2-11.5,0.1-17.3c0.4-11.4,3.2-22.8,5.2-34c1.9-10.9,3.8-21.7,4.9-32.7
	s1.4-22,1.5-33.1c0.1-11.2,0.3-22.4-1-33.6c-1.3-10.7-3.4-21.4-2.9-32.3c0.9-19.7,12.5-36.5,15.4-55.8c1.6-10.8,1.8-21.9,2.4-32.8
	c0.6-11.2,1.3-22.4,2.3-33.5c1.4-14.9,3.7-29.6,7-44.2c6-25.9,16.4-57,41.8-69.7c1.6-0.8,3.2-1.5,4.8-2.1c0.2,0.1,0.5,0.1,0.8,0
	c5.8-2,12.1-2.3,18-0.7c0.7,0.1,1.3-0.5,1.4-1.2C766.1,99.4,765.8,98.9,765.3,98.7z"/>
<path class="st5" d="M713.3,155.4c-6.3,14.7-8.1,30.9-9.9,46.7c-1,8.3-2.3,16.6-3.3,24.9c-1.1,9.3-1.6,18.6-1.9,27.9
	c-0.2,9.5-0.3,19.1-0.2,28.6c0.1,9.5,1,19.3-1.2,28.6c-2,8.6-5.3,16.8-6.6,25.5s-1.4,17.8-1.4,26.6c-0.1,38.6-1.2,77.1-4.2,115.5
	c-3,37.9-12.3,74.9-14.9,112.8c-0.6,9.1-1,18.4,0,27.5c0.9,8,2.8,15.9,5.5,23.5c2.5,7,5.2,14.4,9.2,20.6c3.7,5.7,9.1,9.9,13.8,14.7
	c2.2,2.5,4.9,4.5,8,5.9c1.5,0.6,2.6-2,1.1-2.6c-3.4-1.5-5.9-4.2-8.3-6.9s-5.1-5-7.6-7.5c-5-5.3-7.8-11.7-10.5-18.4
	c-3.1-7.5-5.4-15.2-7-23.2c-1.6-8.8-1.7-17.6-1.3-26.5c1.5-37.1,10.8-73.3,14.3-110.1c3.6-37.5,4.7-75.3,4.8-113
	c0-9-0.2-18.1,0.4-27.1c0.6-9.1,2.4-18.1,5.2-26.9c1.3-3.9,2.4-7.8,3.3-11.8c0.7-4.4,1-8.8,0.9-13.2c0-9.3-0.2-18.6-0.2-27.9
	s0.1-18.6,0.6-28c0.5-9,1.8-17.8,2.9-26.8c2.1-16,3-32.3,7.2-47.9c1-3.6,2.2-7.2,3.7-10.7C716.1,155,713.8,154.1,713.3,155.4z"/>
<path class="st5" d="M721.5,663c-15-13.9-23.9-33.5-28-53.3c-2.1-9.9-2.9-20.1-2.2-30.2c1-12.9,3.1-25.8,5.2-38.6
	c4.3-26.2,8.8-52.5,8.5-79.1s-3.7-53.5,0.8-79.9c2.2-13,6.4-25.6,8.6-38.5c1.1-6.6,1.5-13.3,1.3-20c-0.2-6.7-0.8-13.4-1-20.1
	c-0.1-3.4-0.1-6.7,0.1-10c0.1-1.6-2.4-1.6-2.5,0c-0.9,13.7,1.2,27.3,0.2,41c-1,13.5-5.5,26.5-8.3,39.7c-2.7,13.1-4,26.4-3.8,39.7
	c0,13.4,0.9,26.7,1.3,40.1c0.3,13.5-0.2,27.1-1.5,40.6c-1.3,13.4-3.4,26.8-5.5,40.1c-2,13-4,26.1-5.5,39.2
	c-1.2,10.2-1,20.6,0.5,30.7c3,20,11,40.6,24.8,55.7c1.6,1.8,3.4,3.5,5.2,5C720.9,666.1,722.8,664.2,721.5,663z"/>
<path class="st5" d="M747.1,637.1c-4.1-6.2-11.5-9.1-15.4-15.5c-8.3-13.8-13.1-29.4-15.9-45.2c-1.1-6.1-1.8-12.2-2.5-18.3
	c0.4-0.3,0.6-0.7,0.5-1.2c-1-6.7-1.9-13.5-2.4-20.2c-0.2-3.4-0.3-6.7-0.3-10.1s0.4-6.7,0.6-10c0.4-6.9,0.1-13.9,0.5-20.8
	s1.8-13.8,3-20.6s1.9-13.6,2.6-20.5s1.6-14,2.4-21c1.7-14,3.2-28.1,4.5-42.2c1.5-15.9,2.4-31.8,2.4-47.7c-0.1-0.7-0.7-1.2-1.4-1.1
	c-0.6,0.1-1.1,0.5-1.1,1.1c-0.1,28.5-3.5,56.8-6.6,85c-0.8,7-1.5,14-2.2,21c-0.7,7-1.2,14-2.3,21s-2.6,13.8-3.4,20.8
	s-0.4,13.8-0.6,20.7c-0.1,3.9-0.6,7.7-0.8,11.5c-0.2,3.7-0.2,7.4,0,11.1c0.2,4.4,0.7,8.8,1.4,13.1c-0.1,0.2-0.2,0.4-0.1,0.7
	c1.3,16,2.9,32.1,7.6,47.5c2.3,7.8,5.4,15.3,9.2,22.4c1.9,3.5,3.8,6.9,6.8,9.7c2.6,2.4,5.6,4.3,8.1,6.8c6.3,6.2,7.3,15,7.2,23.4
	c0,1.7,2.3,1.6,2.5,0C752.3,651.3,751.2,643.2,747.1,637.1z"/>
<path class="st3" d="M739.1,352.5c-2.9-8.4-8-16-10.3-24.6c-0.2-0.6-0.9-1-1.5-0.8c-0.6,0.2-0.9,0.8-0.8,1.4
	c2.1,7.6,6.2,14.3,9.2,21.6c2.8,7.1,3.5,14.5,3.4,22c-0.1,7.8-1,15.6-1.9,23.4c-1,8.7-2,17.3-2.9,26c-1,9.9-1.8,19.8-1.4,29.8
	c0,0.6,0.5,1.1,1.1,1.1c0.6,0,1.1-0.5,1.1-1.1c0.4-8.9,0.9-17.7,1.7-26.6s1.9-17.5,2.9-26.3c0.9-8,1.8-15.9,2.1-23.9
	C741.9,367.1,741.6,359.5,739.1,352.5z"/>
<path class="st3" d="M752.8,455.2c-1.4-9.8-2.8-19.6-3-29.5c-0.2-5.4,0.1-10.8,0.9-16.2c0.2-1.6-2.2-2.2-2.4-0.7
	c-3.1,19.6,1.2,39.3,3.5,58.8c0.6,5.5,1,10.9,1.2,16.4c0,0.6,0.5,1.1,1.1,1.1s1.1-0.5,1.1-1.1l0,0
	C755.4,474.4,754.1,464.7,752.8,455.2z"/>
<path class="st6" d="M816.2,103.3c-4.8-5.3-11.2-8.8-18.3-9.2s-14.2,2-21,3.8c-0.7,0.3-1.1,1.1-0.9,1.8c0.2,0.7,0.9,1,1.6,0.9
	c6.4-1.7,13-3.9,19.6-3.7c6.8,0.2,12.2,3.7,17.1,8.1c0.5,0.5,1.3,0.5,1.8-0.1C816.7,104.5,816.7,103.8,816.2,103.3z"/>
<path class="st5" d="M920.1,479.2c-4.7-14.8-6.2-30.5-12.4-44.9s-13-28.5-16.8-43.8c-1.8-7-2.8-14.1-3.2-21.3
	c-0.2-7.7,0-15.4,0.8-23c0.7-8.1,1.6-16.1,2.1-24.3c0.6-7.2,0.4-14.4-0.5-21.6c-1-6.9-2.7-13.6-3.9-20.5c-1-6.2-1.9-13-0.1-19.2
	c0.1-0.6-0.3-1.2-0.9-1.4c-0.6-0.1-1.1,0.2-1.3,0.7c-1.7,5.4-1.3,11.2-0.6,16.8c0.8,6.3,2.1,12.6,3.2,18.9
	c1.1,6.5,1.5,13.1,1.3,19.7c-0.2,8.2-1.1,16.4-1.9,24.5c-0.8,8-1.6,15.9-1.6,23.9c0,7.3,0.6,14.7,2,21.9
	c2.9,15.3,9.1,29.6,15.5,43.7c1.6,3.6,3.3,7.3,4.7,11s2.5,7.4,3.5,11.1c2,7.5,3.7,15.2,5.9,22.7c0.6,1.9,1.2,3.8,1.8,5.6
	C918.4,481.2,920.5,480.6,920.1,479.2z"/>
<path class="st3" d="M866.6,300.2c-3.1,11.6-6.7,23.1-10.4,34.6s-8,22.6-11.4,34.1c-6.3,21.3-7.3,43.8-6.6,65.9
	c0.5,11.6,1.5,23.2,3.2,34.8c1.6,11.8,4,23.6,4.5,35.5s-0.5,24.1-1.2,36.1c-0.4,5.6-0.9,11.2-1.1,16.7c-0.1,2.5,0,5,0.3,7.5
	c0.4,2.9,1.3,5.8,1.8,8.7c0.9,5.7,1.3,11.5,1.3,17.3c0.1,6,0.2,12,0.4,17.9c0.4,6,0.2,12-0.5,18c-0.8,5.7-2.5,11.2-3.4,16.9
	c-0.4,2.7-0.6,5.4-0.5,8.1c0.1,0.7,0.7,1.2,1.4,1.1c0.6-0.1,1.1-0.5,1.1-1.1c-0.1-5.9,1.3-11.7,2.6-17.3c1.4-5.5,2.1-11.2,2.3-16.8
	c0.1-5.9-0.3-11.8-0.5-17.6s0-11.7-0.4-17.5c-0.6-5.6-1.5-11.2-2.7-16.8c-1-5.3-0.4-10.7,0-16.1c0.5-5.9,0.7-11.9,1.1-17.8
	s0.8-11.8,1-17.7c0.2-6-0.1-12-0.7-18c-0.7-5.8-1.7-11.6-2.6-17.3c-1.8-11.5-3.2-23.1-4-34.7c-0.8-11.6-0.9-23.3-0.3-35
	c0.4-10.9,1.8-21.7,4.2-32.3c2.7-11.4,7-22.3,10.7-33.4c3.8-11.4,7.4-22.9,10.6-34.5c0.8-2.9,1.5-5.7,2.3-8.6
	c0.2-0.7-0.3-1.4-0.9-1.5C867.5,299.2,866.8,299.6,866.6,300.2z"/>
<path class="st5" d="M874.2,612.8c-0.9-11.8-2.7-23.6-3.1-35.5c-0.4-12.2-0.7-24.4-1.6-36.5c-0.9-12.5-3-24.9-4-37.3
	c-0.5-6.3-0.9-12.6-1.1-18.9s-0.1-12.4-0.5-18.6c-0.7-12.5-2.9-24.9-2.5-37.4c0.2-5.6,0.7-11.2,1-16.8s0.7-11.4,1.1-17
	c0.7-11.3,2-22.5,4.1-33.6c0.5-2.6,1.1-5.2,1.8-7.8c0.5-1.9-2.4-2.7-2.9-0.8c-5.4,21.4-6,43.8-7.4,65.8c-0.4,5.8-0.8,11.5-0.6,17.3
	c0.2,6.1,0.9,12.2,1.5,18.4s1.2,12.5,1.3,18.7s0.2,12.4,0.6,18.6c0.6,12.4,2.2,24.7,3.6,37c1.3,12,1.9,24,2.4,36
	c0.2,6.1,0.3,12.2,0.7,18.2c0.3,5.9,1,11.7,1.6,17.6c1.3,11.7,2.4,23.5,1,35.2s-6,22.8-11.2,33.4c-2.1,4.3-4.3,8.5-6.1,12.8
	c-1.6,3.9-3.3,8-5.8,11.4c-1.1,1.6-2.6,2.9-4.3,3.8c-1.7,0.9-0.2,3.5,1.5,2.6c7.4-3.8,9.8-13.4,13-20.4
	c4.7-10.2,10.2-19.8,13.3-30.7C874.7,636.8,875.1,624.8,874.2,612.8z"/>
<path class="st3" d="M904.6,602c-0.5-17.7-3.3-35.2-4.9-52.8c-1.9-21.1-3.3-42.2-6.9-63c-3.3-19.4-9.7-38.5-10.4-58.3
	c-0.1-2.4-0.1-4.8,0-7.2c0.1-1.8-2.7-1.8-2.8,0c-1,19.7,4.7,38.9,8.4,58c4,20.5,5.6,41.4,7.4,62.3c1.5,18,4.2,35.8,5.4,53.8
	c1.1,17.4,0.7,35.5-5.9,52c-3.5,8.7-9.8,15.7-14.6,23.7c-4.8,8.2-8.1,17.5-10.7,26.7c-0.7,2.3-1.3,4.7-1.9,7
	c-0.1,0.6,0.3,1.2,0.9,1.3c0.5,0.1,1-0.2,1.2-0.7c2.9-9.3,5.8-18.7,10.1-27.5c4.1-8.6,10.6-15.6,15.2-23.9
	C903.7,637.9,905.1,619.2,904.6,602z"/>
<path class="st5" d="M926.8,572.4c-0.1-7.2-0.6-14.3-0.7-21.5c-0.2-16.4,0-33-4.2-49c-0.2-0.7-1-1.1-1.7-0.8c-0.6,0.2-1,0.9-0.9,1.6
	c3.7,14.1,3.7,28.7,3.7,43.2c0,7,0.2,14,0.5,21.1c0.3,6.6,0.1,13.3-0.5,19.9c-0.7,6.5-1.9,13-3.8,19.2c-2,6.5-4.7,12.7-6.4,19.3
	c-1.8,6.8-3,13.7-4.4,20.5c-0.9,5.4-2.5,10.6-4.7,15.6c-2.1,4.5-5,8.6-8.5,12.1c-4.1,4.2-8.8,7.7-13.3,11.3c-1.1,0.9,0.3,2.8,1.5,2
	c8-5.6,15.9-12.2,20.8-20.7c6-10.4,7.2-22.9,9.8-34.4c0.8-3.4,1.6-6.8,2.6-10.1s2.4-6.7,3.7-10.1c2.3-6.3,4-12.8,5-19.4
	C926.5,585.6,926.9,579,926.8,572.4z"/>
<path class="st5" d="M912.6,423.5c-1-3.8-0.9-7.6-1-11.5c0.1-4-0.4-7.9-1.5-11.7c-2.3-7.2-6.5-13.6-8.3-21c-0.3-0.7-1.1-1.1-1.8-0.9
	c-0.7,0.2-1,0.9-0.9,1.6c1.9,7.3,6,13.8,8.3,21c2.3,7.5,0.2,15.6,3,23.1C910.9,425.5,913,425,912.6,423.5z"/>
<text transform="matrix(1 0 0 1 974.07 325.62)" class="st4 st7 st8">DHRITI </text>
<text transform="matrix(1 0 0 1 974.07 565.62)" class="st4 st7 st8">SHAH</text>
</svg>
