<svg id="Layer_1" data-name="Layer 1" xmlns="http://www.w3.org/2000/svg" viewBox="0 0 788.81 457"><defs><style>.cls-1{fill:#c33;}.cls-2{fill:#143e5f;}.cls-3{fill:#7491af;}.cls-4{fill:#201a84;}.cls-5,.cls-8{fill:#ccc;}.cls-6{fill:#a9d3ac;}.cls-7{fill:#f2f2f2;}.cls-8{font-size:111.22px;font-family:Glass;}</style></defs><rect class="cls-1" width="785" height="457"/><path class="cls-2" d="M93.54,126.14c0-.06,0-.07,0-.06a.07.07,0,0,1,0,0Z"/><path class="cls-2" d="M94.34,126.73h0Z"/><path class="cls-2" d="M95.89,125.33a.41.41,0,0,0-.54-.15.41.41,0,0,0-.14.55h0a.14.14,0,0,1,0,.07l0,.11.06.22h0v0h0s0,0,0,0v.07h0a.29.29,0,0,1,0,.09h0a.43.43,0,0,0,0,.07h0l0,0,0,0h0l0,0,0,0h0l-.07,0-.08,0h0l-.08,0-.22,0H94.3l-.07,0a.9.9,0,0,1-.22-.06h0l0,0-.1,0-.15-.1,0,0-.06-.07h0l0,0h0a.22.22,0,0,1,0-.08v0a.45.45,0,0,1,0-.11v0h0v0h0a.1.1,0,0,1,0,0V126a.47.47,0,1,0-.93,0,1.5,1.5,0,0,0,.48,1.13,2,2,0,0,0,1.12.47,1.85,1.85,0,0,0,1.87-.85A1.4,1.4,0,0,0,95.89,125.33Z"/><path class="cls-2" d="M93.66,126.41h0s0,0,0,0h0Z"/><path class="cls-2" d="M94,126.64c-.07,0,0,0,0,0Z"/><path class="cls-2" d="M95.27,126.45h0a.12.12,0,0,0,0,0Z"/><path class="cls-2" d="M94.71,126.72Z"/><path class="cls-2" d="M95.34,126.15v0c0,.05,0,.07,0,.06v0Z"/><path class="cls-3" d="M104.42,126.29a.41.41,0,0,0-.08-.64,4.32,4.32,0,0,1-1-.89,5.46,5.46,0,0,0-1-.79A14.51,14.51,0,0,0,100,122.5a13.72,13.72,0,0,0-5.2-1.24,11.11,11.11,0,0,0-5.26.82c-.86.39-1.72.77-2.54,1.24l-1,.56a17.45,17.45,0,0,1-2.51,1,.43.43,0,0,0,.22.83c.19,0,.36-.12.54-.18h0c1.88-.49,3.47-1.64,5.25-2.38a13,13,0,0,1,2.29-.73,11.55,11.55,0,0,1,2.88-.11,13.56,13.56,0,0,1,5.29,1.19,10.55,10.55,0,0,1,2.37,1.61l.09.09a10.65,10.65,0,0,0-2.66-.78A19.72,19.72,0,0,0,97,123.9a11.47,11.47,0,0,0-1.76,0,15.44,15.44,0,0,0-1.67.08,11.59,11.59,0,0,0-2.7.84h0c-.63.19-1.24.47-1.85.71a16.6,16.6,0,0,0-1.81.85,16.8,16.8,0,0,1-2.4,1.11,2.13,2.13,0,0,0-.25,0,4.69,4.69,0,0,0-1.28.36.52.52,0,0,0-.24.32v.05a.41.41,0,0,0,.1.76.33.33,0,0,0,.08.22l0,.05c.07.12.14.25.22.36a2.84,2.84,0,0,0,.52.52q.26.19.51.36l.26.16.12.08c.08.05.17.08.25.12a.59.59,0,0,0,.23,0c3,1.71,6.64,1.19,9.91.64A21.57,21.57,0,0,0,98,131a14.71,14.71,0,0,0,2.06-.86,12.52,12.52,0,0,0,4.64-2.74.47.47,0,0,0,.1-.16A.61.61,0,0,0,104.42,126.29Zm-12.65,1.36a.86.86,0,0,0-.1-.16l0,0a4.39,4.39,0,0,1-.32-.51c0-.07,0-.15,0-.22a2.17,2.17,0,0,1-.07-.24c0-.17-.09-.33-.13-.5a0,0,0,0,0,0,0,12.52,12.52,0,0,1,1.35-.44s0,.08,0,.12a2,2,0,0,0,0,.24l0,.12a1.66,1.66,0,0,0,.15.33,1.68,1.68,0,0,0,.24.29.34.34,0,0,0,.16.1l0,0a1.47,1.47,0,0,0,.1.13,1.3,1.3,0,0,0,.23.18.44.44,0,0,0,.3.06.53.53,0,0,0,.27-.13.45.45,0,0,0,.12-.21.48.48,0,0,0,0-.37c-.06-.14-.14-.27-.21-.4l-.06-.21v-.14s0,0,0,0a.57.57,0,0,0,0-.34c.4-.05.79-.08,1.18-.1,0,0,0,0,0,0a3.72,3.72,0,0,1,.27.48,2.33,2.33,0,0,1,.1.44v0a.45.45,0,0,0,.12.29.64.64,0,0,0,.25.12.45.45,0,0,0,.28,0,.47.47,0,0,0,.2-.26,2,2,0,0,0,0-.43,2.07,2.07,0,0,0-.07-.41,2.25,2.25,0,0,0-.08-.24q.66,0,1.32,0a.49.49,0,0,0,.08.24s0,0,0,0a1.36,1.36,0,0,1,.1.36,3.72,3.72,0,0,0,.08.57.45.45,0,0,0,.22.29,1.67,1.67,0,0,1-.38,1.09,3.8,3.8,0,0,1-2.76,1,4.67,4.67,0,0,1-2.86-.7A.53.53,0,0,0,91.77,127.65Zm8,1.4a11.51,11.51,0,0,1-1.91.76,28.5,28.5,0,0,1-4.12.54,27,27,0,0,1-5.82-.12,9,9,0,0,1-3.24-.83,3.34,3.34,0,0,1-.33-.32,1.19,1.19,0,0,1-.09-.15h0a3.9,3.9,0,0,0,.48-.17.38.38,0,0,0,.18-.23l.47-.15.55-.13a.44.44,0,0,0,.18-.12,16,16,0,0,0,2.15-.89c.51-.26,1-.53,1.56-.77a3.41,3.41,0,0,0,.1.54,3.87,3.87,0,0,0,.25.55,2.35,2.35,0,0,0,.36.47l0,0a4.17,4.17,0,0,0,3,1.54,7.81,7.81,0,0,0,2.31-.16,3.57,3.57,0,0,0,2.48-1.51,2.84,2.84,0,0,0,.28-1.86,2.1,2.1,0,0,0,0-.43,2.31,2.31,0,0,0,0-.37l.18,0c.34,0,.68.09,1,.15l.49.16c1,.41,2,1,3.05,1.41-.44.32-1,.55-1.42.82C101.25,128.27,100.52,128.68,99.78,129.05Z"/><path class="cls-2" d="M103.31,129.51a10.39,10.39,0,0,1-3.76,1.84,29.06,29.06,0,0,1-4.94,1.33,25.82,25.82,0,0,1-4.73.4,34.84,34.84,0,0,1-4.86-.67l-.53-.23a.29.29,0,0,0-.13,0,.2.2,0,0,0-.13,0,.34.34,0,0,0-.15.2.31.31,0,0,0,0,.25l.06.07a.24.24,0,0,0,.11.06.4.4,0,0,0,.32.47A40.76,40.76,0,0,0,90,134a25.83,25.83,0,0,0,5-.5,33,33,0,0,0,5.31-1.56c1.23-.47,2.68-.86,3.56-1.91A.37.37,0,0,0,103.31,129.51Z"/><path class="cls-2" d="M138.62,123.51v0s0-.06,0-.06v0Z"/><path class="cls-2" d="M141.14,122.26a.43.43,0,0,0-.78.33c0,.11.06.22.08.33l0,.12v.06h0a1.7,1.7,0,0,1,0,.22v0s0,.07,0,.11h0a.41.41,0,0,1-.05.09v0l-.06.07a.27.27,0,0,0-.08.07l0,0,0,0-.16.08,0,0-.09,0-.09,0h-.6l-.22,0-.1,0-.15-.08,0,0-.05,0h0s0,0,0,0l-.06-.06,0-.06s0,0,0,0,0,0,0,0h0s0,0,0,0v-.08a.53.53,0,0,1,0-.13.5.5,0,0,0-.49-.49.49.49,0,0,0-.49.49c-.1.92.77,1.5,1.58,1.6a2,2,0,0,0,2-.93A1.72,1.72,0,0,0,141.14,122.26Z"/><path class="cls-2" d="M139.82,123.85h0c-.08,0-.08,0-.06,0h0Z"/><path class="cls-2" d="M138.75,123.68h0a.12.12,0,0,0,0,0l0,0Z"/><path class="cls-2" d="M140.25,123.68Z"/><path class="cls-3" d="M138.61,123.65h0a.34.34,0,0,0,0,.1Z"/><path class="cls-3" d="M149.17,123.15a3.48,3.48,0,0,0-.38.23c-.18-.15-.37-.29-.54-.41a7.62,7.62,0,0,0-2.55-1.1,8.44,8.44,0,0,0-2.82-.39,27.73,27.73,0,0,1-3.16.09,13.11,13.11,0,0,0-2.8,0,12,12,0,0,0-2.7.73,4.37,4.37,0,0,0-.77.41,8.76,8.76,0,0,0-2.52,1.64,2.31,2.31,0,0,0-.73.76.48.48,0,0,0,.27.7.56.56,0,0,0,.17.11l.06,0a.39.39,0,0,0,.29.21l.76.17,1.11.41a6.55,6.55,0,0,0,2.53.34c.85,0,1.72.13,2.57.07.66,0,1.31-.15,2-.23h.13a19.86,19.86,0,0,0,5.35-1h.11a11.91,11.91,0,0,0,2.51-.59,2.31,2.31,0,0,0,.61-.3c.24.75,1.44.43,1.19-.33h0a.35.35,0,0,0-.11-.4l.08-.05C150.49,123.84,149.87,122.83,149.17,123.15Zm-5.53,1.07,0,0a2.63,2.63,0,0,0,.06-.39l0-.13a2.48,2.48,0,0,0,0-.9,7.47,7.47,0,0,1,1.26.11,8.58,8.58,0,0,1,2.47,1l.17.14a16.78,16.78,0,0,0-1.93.64,4.33,4.33,0,0,1-.72.12,10.86,10.86,0,0,0-1.61.29A2.57,2.57,0,0,0,143.64,124.22Zm-7.45-.83,0,.17a2.36,2.36,0,0,1,0-.46h0a.75.75,0,0,0,0-.26,11.86,11.86,0,0,1,1.18-.14,1.91,1.91,0,0,0,.06.33.75.75,0,0,1,0,.15,1.32,1.32,0,0,0,0,.34.78.78,0,0,0,.5.63.49.49,0,0,0,.54-.23.79.79,0,0,0,.08-.26h0v0a.44.44,0,0,1,0-.1,1.87,1.87,0,0,0,0-.25,1.17,1.17,0,0,0,0-.37l-.09-.29c.28,0,.55,0,.82,0l.24,0c.35,0,.69,0,1,0,.58,0,1.15.07,1.73.07a.51.51,0,0,0,0,.17,3.61,3.61,0,0,1,.12.55l0-.16.06.4a2.29,2.29,0,0,0-.05.52.55.55,0,0,0,.12.33l.07.07a1.14,1.14,0,0,1-.26.42c-.71.66-2,.51-2.89.64a11,11,0,0,1-1.52.15,2.55,2.55,0,0,1-1.34-.25,1.42,1.42,0,0,1-.38-.39,3.24,3.24,0,0,0-.22-.81.58.58,0,0,0,.15-.38,1,1,0,0,0,0-.24C136.22,123.65,136.21,123.52,136.19,123.39Zm-1.43-.16a2.21,2.21,0,0,0,.06,1,3.82,3.82,0,0,0,.24.55,3.62,3.62,0,0,0,.65,1.21h-.06a9.17,9.17,0,0,1-1.76-.13l-.17,0q-.28-.06-.57-.15c-.53-.19-1.07-.35-1.6-.52.33-.23.72-.41,1-.61A11.28,11.28,0,0,1,134.76,123.23Z"/><path class="cls-4" d="M152.6,122.24a42.69,42.69,0,0,0-5.94-2.77,17.58,17.58,0,0,0-6.12-.67,14.87,14.87,0,0,0-5.82,1.45c-1.85.91-3.3,2.5-5.22,3.29-.52.21-.29,1.08.24.86a30.16,30.16,0,0,0,4.69-2.89,12.26,12.26,0,0,1,6-1.74,18.25,18.25,0,0,1,6.11.65,15.56,15.56,0,0,1,2.9,1.27,13.81,13.81,0,0,0,2.83,1.34C152.72,123.15,153.05,122.46,152.6,122.24Z"/><path class="cls-4" d="M153,127.54c-3.21.86-6.52-.39-9.79-.27-.84,0-1.66.18-2.49.29s-1.65.1-2.48.16a12,12,0,0,1-2.39-.09,5.16,5.16,0,0,0-1.92,0c-.64.14-.37,1.14.27,1a6,6,0,0,1,2.15.08,13.74,13.74,0,0,0,2.4,0c1.72-.1,3.4-.54,5.12-.5a45.08,45.08,0,0,1,5,.56c1.48.19,3.09.43,4.44-.36A.47.47,0,0,0,153,127.54Z"/><path class="cls-3" d="M132.14,146.82a.34.34,0,0,0-.33-.22c-.65-1.47-1.58-2.8-2.24-4.26s-1.45-3-2.25-4.5c-.39-.74-.71-1.51-1.08-2.26a13.59,13.59,0,0,1-1.1-2.35.42.42,0,0,0-.8.22,25.11,25.11,0,0,0,1.74,3.94c.65,1.45,1.39,2.85,2.06,4.29s1.34,2.77,2.09,4.13a8.09,8.09,0,0,1,1,2.26,3.21,3.21,0,0,1-.35,1.66l-.12.09-.08.06a2,2,0,0,1-.32.18h-.05l-.16,0-.12,0h-.25a1.6,1.6,0,0,1-.47-.17,1.62,1.62,0,0,1-.32-1,2,2,0,0,0-1-.62,5.32,5.32,0,0,0-3.15.31l-.23.09a.36.36,0,0,0-.53-.25,8.23,8.23,0,0,0-2.67,2.89A7.07,7.07,0,0,1,120,153a3.81,3.81,0,0,1-3.52,0,.59.59,0,0,0-.22,0,6.06,6.06,0,0,0-.67-1.08.38.38,0,0,0,0-.36,3.62,3.62,0,0,0-2.44-2h0a.38.38,0,0,0-.45-.25l-.57.12a12.63,12.63,0,0,0-3.06.38.4.4,0,0,0-.25.6l-.42.2a.42.42,0,0,0-.21.36c-1.26-1.52-.3-3.9.15-5.56s.7-3.26,1-4.91c0,0,0,0,0-.05a22.77,22.77,0,0,0,.57-2.94l0-.09v-.07c.16-1.12.31-2.25.58-3.35.12-.5-.66-.72-.78-.21a34.48,34.48,0,0,0-.57,3.5c-.72,2.88-1,5.83-1.85,8.68-.53,1.8-1.07,4.2.46,5.66a.35.35,0,0,0,.54-.05.41.41,0,0,0,.54,0,6,6,0,0,1,1.15-.65.34.34,0,0,0,.31,0c.15-.09.32-.16.47-.24a3.31,3.31,0,0,1,2,.16,4.42,4.42,0,0,1,1.54,1.14,18,18,0,0,1,1.27,1.86.46.46,0,0,0,.61.13,4.91,4.91,0,0,0,2.2.36.5.5,0,0,0,.32.05c2.34-.32,3.12-2.68,4.53-4.27a.46.46,0,0,0,.61,0l0,0h0l.11-.08.24-.15.5-.25a6.24,6.24,0,0,1,1.34-.39,4.18,4.18,0,0,1,1.28-.05,1.72,1.72,0,0,1,.85.37.86.86,0,0,1,.25.41.4.4,0,0,0-.14.15.49.49,0,0,0,.18.68h0a.37.37,0,0,0,.56.27,3,3,0,0,0,.78.21,1.75,1.75,0,0,0,1.34-.47,3.3,3.3,0,0,0,1.13-2.46A3.73,3.73,0,0,0,132.14,146.82Z"/><path class="cls-5" d="M209.67,290.5a82.14,82.14,0,0,0-4-17.58c-1.92-5.87-4.19-11.62-5.9-17.56a60.35,60.35,0,0,1-2-17.8c.05-5.79.14-11.73-1.65-17.3s-4.75-10.78-7.58-15.88a38.82,38.82,0,0,1-3.74-7.93,31.27,31.27,0,0,1-1-7.89c0-1.45,0-2.91,0-4.37a35,35,0,0,0,0-6.94c.06-.49.13-1,.23-1.48a.27.27,0,0,0-.21-.31,3,3,0,0,1,.25-.34c.1-1.71.19-3.41.29-5.12.35-6.3.82-12.73.28-19-.52-5.95-2.85-11.34-4.64-17-1.84-5.82-3.37-11.68-5.42-17.43s-4.12-11.74-6.46-17.5c-4.14-10.19-9.12-20.3-15.65-29.19a101.68,101.68,0,0,0-10.8-12.11c-3.78-3.74-8-8.15-13.12-10-4.73-1.75-9.5-.1-14,1.56h0a1,1,0,0,0-.73-.37c-.92,0-1.83-.16-2.75-.23a.84.84,0,0,0-.61.25.41.41,0,0,0-.07.11C95.22,46.78,81.22,56.28,72.7,68.43a62.54,62.54,0,0,0-9.8,24.26c-.95,4.85-1.56,9.76-2.42,14.63-.89,5.07-2.08,10.08-3.13,15.12A135.78,135.78,0,0,0,55,137.3a123.39,123.39,0,0,1-2,14.2c-2,9.31-6.65,17.71-9.39,26.79-2.79,9.25-2.34,18.53-1,28,1.34,9.76,3.57,19.43,3.54,29.32,0,10.29-2.42,20.62-4.58,30.63a97.56,97.56,0,0,0-2,14.65c-.31,5-.24,10.1-.95,15.06-.65,4.55-2.19,8.91-3.5,13.3a58.32,58.32,0,0,0-2.37,13.24c-.53,8.55-1.81,17.3-.21,25.81a24.6,24.6,0,0,0,4.77,10.57c2.41,3.14,5.36,5.82,7.89,8.86,2.82,3.37,4.57,7.48,7.44,10.81s7,5.18,10.86,7.21c3.41,1.82,7,4.73,11.1,4.53,4.49-.21,7.27-3.48,10.83-5.68,3.29-2,7.35-1.55,10.66-3.47a10.2,10.2,0,0,0,3.78-3.93,25.69,25.69,0,0,1,3.72-5.36c2.45-2.62,4.87-6.3,5.24-10,.31-3.1-1.23-5.84-2.88-8.33-1.2-1.8-2.61-3.47-3.7-5.35a42.19,42.19,0,0,1-2.88-6.48,89.29,89.29,0,0,0-6-12.76,58,58,0,0,1-5.9-13.71c-1.22-4.59-1.86-9.3-2.67-14-.72-4.23-1.71-8.47-1.59-12.79a30,30,0,0,1,2.87-11.05c1.31-3,3.34-5.9,4.6-9,.33.59.69,1.17,1.07,1.74a.92.92,0,0,0,0,.68c1.16,3.87,2.62,7.64,3.78,11.5a58.61,58.61,0,0,1,2.18,12.12c.37,4.3.57,8.61.84,12.92.25,4,.81,8.06.75,12.09,0,2.32-.37,4.61-.3,6.93a35,35,0,0,0,1,7.21,1.07,1.07,0,0,0,2,0c1.36-4.92,1.33-10.19,1.26-15.26-.07-5.65-.15-11.31-.37-17a100.07,100.07,0,0,1,.76-18.87c.47-3.12,1.06-6.23,1.62-9.35s1.16-6.17,1.42-9.29a107.56,107.56,0,0,0-.29-14.8h0c.17-.58.33-1.17.47-1.76a2.34,2.34,0,0,1,.91-1.41,32.68,32.68,0,0,1-1.18-7.24,56,56,0,0,0-2.15-12.84,55.42,55.42,0,0,1-1.67-7.21,52.67,52.67,0,0,1-.28-8.14c.1-5.24.5-10.47.06-15.7l1.3.82a20.06,20.06,0,0,0,2.52,1.4,3.76,3.76,0,0,0,.25.54.31.31,0,0,0,.55-.26,3.31,3.31,0,0,0,2.11,0c4.57.05,9.13.42,13.69.19,2.09-.1,4.18-.18,6.25-.39,1-.11,2.05-.23,3.06-.44.51-.1,1-.22,1.53-.37s.81-.35,1.22-.43a1.3,1.3,0,0,0,1.34-.48c5-1.86,8.81-6.35,11.91-10.54.71-1,1.52-1.87,2.29-2.8l1.28-1.59c-.87,1.54-1.7,3.09-2.44,4.7-.36.77-.68,1.56-1,2.35a38.21,38.21,0,0,0-5.56,11.82c-1.37,5.57-.61,11.44-.1,17.08.57,6.3.83,12.45-1.06,18.57-1.54,5-3.15,9.91-3.44,15.16a95.76,95.76,0,0,0,.69,17.91c.42,3.08,1.11,6.08,1.27,9.19s.05,6.17,0,9.26c-.07,6.1,1.74,12.25,1.13,18.33-.3,3-1.5,5.76-1.93,8.71a17.57,17.57,0,0,0,.92,7.9,75.86,75.86,0,0,1,2.8,17.4c.15,2.68.13,5.36.34,8.05a72,72,0,0,1,.39,8.31c-.22,5.72-3.16,10.83-5,16.15A27.93,27.93,0,0,0,137.66,384c1,7.6,4.85,15.93,12.58,18.6,4.61,1.6,8.27-.55,12.06-3,4.59-2.95,10-4.31,14.57-7.31,4-2.63,8.19-5.17,11.75-8.42,3.37-3.08,4.93-7,6-11.39,2.82-10.87,3.17-22.27,6.71-33,1.39-4.19,4.39-7.49,5.38-11.87a138.59,138.59,0,0,0,2.76-18.25A101.24,101.24,0,0,0,209.67,290.5ZM106.41,195c-.55-.29-1.09-.59-1.61-.92-1.78-1.12-3.56-2.23-5.24-3.5A44.6,44.6,0,0,1,89.14,179c-.49-.76-1-1.53-1.42-2.32a32.27,32.27,0,0,1-1.9-5.19c-.41-1.95-.49-4-.73-6-.5-4.05-1.36-8-2.09-12.05-.07-.39-.13-.79-.19-1.19l.08,0a2.93,2.93,0,0,1,1.83-.53,2.81,2.81,0,0,1,1.55.71,10.34,10.34,0,0,1,2.46,3.72,41.28,41.28,0,0,1,1.59,4.4,10.74,10.74,0,0,0,1.88,4.17c.16.18.34.35.52.52a.32.32,0,0,0,.11.19l.07.05h0l0,0A11.41,11.41,0,0,0,95.48,167a5.13,5.13,0,0,0,3,.47.29.29,0,0,0,.19-.14.34.34,0,0,0,.19.16h-.06a.44.44,0,0,0-.23.85c3,.77,6.17,1,9.18,1.95a23.05,23.05,0,0,0,8.64,1.2,76.93,76.93,0,0,0,9.06-1.44c3-.6,6-1.22,9-1.94s5.2-2.74,8-3.57a.38.38,0,0,0,.29-.45h.12a.48.48,0,0,0,.32-.15,1.21,1.21,0,0,1,.05-.18,13.35,13.35,0,0,1,3.67.27,3.6,3.6,0,0,1,1.55.54,3.72,3.72,0,0,1,.45.33v0a4.17,4.17,0,0,1,.33.67c.88,2.42-.82,4.88-2.4,6.58a17.7,17.7,0,0,1-5.4,3.77,53.17,53.17,0,0,1-6.25,2.43c-4.43,1.47-9,2.53-13.38,4.1a41.26,41.26,0,0,0-6.31,2.78,21.2,21.2,0,0,0-4.56,3.24,22.2,22.2,0,0,0-3.22,3.89A10,10,0,0,0,106.41,195Zm9-28.88c5.37.22,10.53-1.53,15.88-1.71,2.89-.1,5.79,0,8.68,0-1.59.68-3.08,1.63-4.72,2.24a34,34,0,0,1-4.11,1.07c-1.47.34-3,.69-4.43,1-3,.65-6,1.17-9.09,1.55a22.51,22.51,0,0,1-8.83-.71,46.78,46.78,0,0,0-4.91-1.19c-1.66-.27-3.32-.51-5-.89H99C104.53,167.46,109.91,165.88,115.45,166.11Zm-15.52.39c4.91-1.5,9.63-3.77,14.78-4.31a18.56,18.56,0,0,1,4.71.13,10.37,10.37,0,0,0,3.76-.32,24.51,24.51,0,0,1,9.65.27c1.54.29,3,.72,4.57,1.08-1.61,0-3.23,0-4.84,0a49.53,49.53,0,0,0-8,.83,48.76,48.76,0,0,1-8,1c-1.4,0-2.78-.08-4.18,0s-2.69.23-4,.4C105.58,165.94,102.77,166.39,99.93,166.5Zm47.14,16.13c-.7,1-1.52,1.85-2.28,2.76s-1.76,2-2.7,3a18,18,0,0,1-6.6,4.59,1.28,1.28,0,0,0-.75.64,1.23,1.23,0,0,0-.38.34,6,6,0,0,1-1.08.29c-.48.12-.95.22-1.43.31-1,.18-2,.32-3.06.41-2,.19-4,.3-6,.36-4.82.13-9.61-.27-14.42-.29a1,1,0,0,0-.91.47l-.28-.13h0a7.82,7.82,0,0,1,1-2.15,21.14,21.14,0,0,1,3.26-4,20.6,20.6,0,0,1,4.5-3.24,41.64,41.64,0,0,1,6.53-2.85c4.47-1.56,9.09-2.63,13.57-4.16,4.19-1.43,8.68-3.08,11.67-6.51,1.53-1.76,3-4.24,2.36-6.66a4.6,4.6,0,0,0-.19-.52c.2-.51-.26-.89-.66-1.15L149,164a3.4,3.4,0,0,0-.32-.34,1.67,1.67,0,0,1,.08.2,4.63,4.63,0,0,0-1.35-.48,21.43,21.43,0,0,0-2.26-.27,10.21,10.21,0,0,0-2.21,0h-.08c-3.17,0-6.19-1.16-9.27-1.77a28.13,28.13,0,0,0-9.19-.56,25.82,25.82,0,0,1-4.17.65c-.73,0-1.43-.23-2.16-.3a12.74,12.74,0,0,0-2.47,0,37.19,37.19,0,0,0-8.75,2.08c-3.18,1.09-6.31,2.35-9.58,3.13h-.12c-.54-.21-1.08-.38-1.65-.55a5,5,0,0,1-2-1,.29.29,0,0,0-.26-.08,2,2,0,0,1-.22-.19c-1.15-1.13-1.51-2.69-2-4.17a38.45,38.45,0,0,0-1.73-4.51,10.75,10.75,0,0,0-2.6-3.77,3.61,3.61,0,0,0-1.9-.87,3.37,3.37,0,0,0-2.09.53c-.53-3.28-.91-6.59-1.2-9.88A109.15,109.15,0,0,1,81.08,130a91.86,91.86,0,0,1,.85-11.72c.16-1.12.36-2.23.58-3.33h.16c.4-.09.81-.16,1.22-.24a.91.91,0,0,0,.62,0,28.26,28.26,0,0,1,5.59-1.12c1.87-.11,3.74,0,5.61.09a35,35,0,0,1,5.59.71c1.84.34,3.77,1,5.63.39l.19-.1a1,1,0,0,0,.33-.09,2.61,2.61,0,0,0,1.68-1.51,4.26,4.26,0,0,0-.37-2.69,16,16,0,0,0-1.44-2.71,2.75,2.75,0,0,0-1.84-1c-1.16-.27-2.31-.6-3.48-.87a14.57,14.57,0,0,0-3.55-.24c-1.19,0-2.39-.22-3.6-.24s-2.15,0-3.22,0h-.45c-.31-2.48-.18-5-.26-7.5a24.46,24.46,0,0,0-.51-4.44c-.32-1.47-.79-2.91-1.25-4.34a41.76,41.76,0,0,1-1.35-4.93c-.07-.38-.65-.22-.58.16.57,3,1.75,5.78,2.45,8.72s.58,6,.68,9a30.39,30.39,0,0,0,.28,3.3,22.12,22.12,0,0,0-6.27.91,48,48,0,0,0,.82-5.59c.17-2,.19-4.1.29-6.15A50.61,50.61,0,0,1,87,83.36a23.13,23.13,0,0,1,2-4.84c.92-1.68,2-3.24,3.1-4.83a11.55,11.55,0,0,1,4-4.08c1.73-1,3.67-1.48,5.44-2.37a1,1,0,0,0,.79.16c4.15-.8,8.38.52,12.56,0,2-.24,3.88-.63,5.85-.75a22.41,22.41,0,0,1,2.84,0c1.1.08,2.16.41,3.25.51a.79.79,0,0,0,.52-.12,1,1,0,0,0,.63.7c2.93,1.11,5,3.8,7,6l.26.28a16.89,16.89,0,0,0-7.9.35,53.93,53.93,0,0,0-8.37,3.35A36.31,36.31,0,0,1,110,80.88c-3.72.64-7.49.3-11.24.22s-8-.07-11.36,2.07c-.26.17,0,.59.24.42,3-1.9,6.63-2,10.06-1.91,3.69.06,7.39.48,11.08.07a31.55,31.55,0,0,0,9.16-2.69c2.73-1.19,5.4-2.54,8.23-3.47a21.63,21.63,0,0,1,4.76-1,18.38,18.38,0,0,1,5,.37c2.07,2.16,4.31,4.15,6.21,6.47,1.1,1.32,2,2.78,3.1,4.12s2.2,2.59,3.24,3.93A27.89,27.89,0,0,1,153,98.23a42.49,42.49,0,0,1,1.57,8.52c-.33-.14-.67-.27-1-.43-1.14-.55-2.25-1.16-3.39-1.69a19.62,19.62,0,0,0-6.5-1.72,28.61,28.61,0,0,0-13.51,2.25,30.85,30.85,0,0,0-6.65,3.74.9.9,0,0,0-.35.49c-.61,0-1.34.49-1.06,1.16a21.69,21.69,0,0,0,2.48,4.69,2.5,2.5,0,0,0,2.1,1.28c1-.1,1.85-1,2.62-1.63a19.17,19.17,0,0,1,3.51-1.9,25,25,0,0,1,4-1.54,26.09,26.09,0,0,1,8.65-1,17.11,17.11,0,0,1,4.65.85,10,10,0,0,1,4,2.44.91.91,0,0,0,.95.29c.14,2.18.32,4.36.65,6.5A113.89,113.89,0,0,0,158.45,132c.27,1,.53,2.06.79,3.09-1.3.43-2.56,1-3.83,1.5a28.36,28.36,0,0,1-2.68.94,24.67,24.67,0,0,1-3.08.61,28.1,28.1,0,0,1-6,.26,29.31,29.31,0,0,1-6-1.12,39.93,39.93,0,0,1-9.39-3.94,45.94,45.94,0,0,1-4.2-2.82,24.78,24.78,0,0,1-4-3.53,15.2,15.2,0,0,1-3.36-8.6,33,33,0,0,1-.08-5,18.8,18.8,0,0,1,.78-4.77,16,16,0,0,1,4.47-6.91,33.62,33.62,0,0,1,7.37-5,48.69,48.69,0,0,1,8.42-3.49,23.81,23.81,0,0,1,9.35-1.3,9.79,9.79,0,0,1,1.92.4c.34.11.49-.43.15-.54-2.94-.91-6.2-.44-9.12.26a48.22,48.22,0,0,0-9.23,3.33A41.55,41.55,0,0,0,123,100a18,18,0,0,0-5.46,6.55,21.54,21.54,0,0,0-1.6,9.43,18.89,18.89,0,0,0,2.13,9.32,14.13,14.13,0,0,0,3.27,3.83c1.37,1.14,2.78,2.25,4.25,3.26a39.11,39.11,0,0,0,9.23,4.68,31.63,31.63,0,0,0,11.74,2,28.6,28.6,0,0,0,6.24-.93,58.85,58.85,0,0,0,5.54-2.1c.35-.14.71-.27,1.07-.39.65,2.61,1.26,5.22,1.76,7.86a35.68,35.68,0,0,1,.68,6c0,2.09-.09,4.19-.19,6.28a24.38,24.38,0,0,1-.54,4.53c-.55,1.43-1.12,2.85-1.67,4.28a5.56,5.56,0,0,1-.7-.19.74.74,0,0,1,0,.14,9.58,9.58,0,0,1-.58,1.49,33.84,33.84,0,0,1-1.67,3.15c-1.35,2.26-2.7,4.5-4.24,6.64C150.55,178.15,148.75,180.34,147.07,182.63ZM83,112.62c.33-1.5.68-3,1-4.5a.82.82,0,0,0,.49,0,10.44,10.44,0,0,1,1.26-.27.83.83,0,0,0,.21-.06.6.6,0,0,0,.25-.16.76.76,0,0,0,.11-.14,25.42,25.42,0,0,1,4.69-.43.24.24,0,0,0,.37,0h.38c1.21,0,2.42,0,3.62,0s2.55.21,3.84.19a13.92,13.92,0,0,1,3.89.61c.59.16,1.18.34,1.78.49a6.53,6.53,0,0,1,.86.17c.31.22.54,1,.67,1.37.22.54.38,1.11.61,1.65.12.29.36.71.23,1s-.37.39-.57.54a21.47,21.47,0,0,1-5.69-.59,53.89,53.89,0,0,0-5.68-.62,49.82,49.82,0,0,0-5.6,0,26.14,26.14,0,0,0-5,.86,1,1,0,0,0-.49-.16A4.78,4.78,0,0,0,83,112.62Zm71.65-3.79.07.07c.06.78.11,1.56.16,2.35a1.16,1.16,0,0,0-.58.11,18.86,18.86,0,0,0-2.38-1.52,13.48,13.48,0,0,0-4-1.23,28.14,28.14,0,0,0-8.69.08,26.67,26.67,0,0,0-8.07,2.7,23.16,23.16,0,0,0-3.26,1.94c-.4.31-.81.63-1.24.9l-.05,0c-.21-.24-.47-.45-.66-.71a15.65,15.65,0,0,1-.91-1.38c-.31-.5-.59-1-.85-1.54a.83.83,0,0,0,.26-.14c6.61-4.93,15.91-7.44,23.89-4.66a34.07,34.07,0,0,1,3.44,1.54c.56.26,1.1.55,1.66.79A3.68,3.68,0,0,1,154.63,108.83ZM204.19,327c-.93,4.17-3.77,7.36-5.16,11.34a105,105,0,0,0-4,17.36c-.82,5-1.52,10-2.67,14.91-1,4.33-2.27,8.41-5.62,11.5s-7.61,5.72-11.58,8.25c-4.57,2.91-10,4.12-14.51,7-1.75,1.12-3.53,2.45-5.59,2.93a8.69,8.69,0,0,1-6.26-1.3,17.43,17.43,0,0,1-7.05-9.09,26,26,0,0,1-1.59-11.62c.48-5.18,3.07-9.9,4.82-14.72,1.87-5.15,1.86-10.06,1.39-15.47-.46-5.24-.47-10.49-1.2-15.71-.38-2.7-.85-5.4-1.36-8.08s-1.85-5.45-1.92-8.29,1.16-5.83,1.78-8.71a27.29,27.29,0,0,0,.27-8.22c-.27-3-.76-5.94-.92-8.93s0-5.95.05-8.92c0-5.94-1.31-11.58-1.75-17.47-.43-5.71-.8-11.84.21-17.51.92-5.22,3.23-10.1,4.06-15.33.91-5.81.23-11.64-.28-17.46-.46-5.32-.8-10.65,1-15.78a33.29,33.29,0,0,1,1.43-3.42,1.21,1.21,0,0,0,.25.08,1,1,0,0,0,1.07-.7c.85-2.06,1.75-4.11,2.7-6.12.2-.3.41-.59.61-.88l-.13-.13c1-2.05,2-4.08,3.18-6.06,1-1.8,2.07-3.6,3-5.46l.36-.41-.09-.11c.07-.16.16-.32.24-.48,1.09-2.3,2-4.69,2.88-7.08,1-2.71,1.75-5.48,2.69-8.2a1.14,1.14,0,0,0-.78-1.52,49.91,49.91,0,0,0,.09-10.72,105.21,105.21,0,0,0-2.44-11.78c-.95-3.92-2.24-7.77-3.11-11.71-1.72-7.76-1-15.85-2.78-23.6a29.74,29.74,0,0,0-4-9.29c-.11-.18-.24-.35-.35-.52l1.23,1.58c2.41,3,4.87,6.07,6.45,9.64a48,48,0,0,1,3,10.73c.68,3.71,1.14,7.46,1.59,11.2.55,4.63,1,9.27,1.42,13.91s.8,9.11,2.17,13.53c1.3,4.18,3,8.22,4.18,12.45a60.81,60.81,0,0,1,2.09,12.63c.07,1.12.09,2.25.1,3.37a.73.73,0,0,0,1.46,0,48.58,48.58,0,0,0-1.11-13.06A102.94,102.94,0,0,0,169.9,153a59.34,59.34,0,0,1-2-6.5,55.27,55.27,0,0,1-.94-6.9c-.46-4.69-.86-9.38-1.36-14.06-.43-4-.9-8-1.53-11.93a59.18,59.18,0,0,0-2.67-11.15,30.37,30.37,0,0,0-2.28-5,43.39,43.39,0,0,0-3.33-4.74,104.75,104.75,0,0,1-7.43-9.9c-3.73-6.18-5.38-13.52-10.28-19A17.09,17.09,0,0,0,136.22,62c-.66-.56-1.62.39-1,.95,5.49,4.66,7.39,12,10.45,18.25a39,39,0,0,0,3.37,5.52c-1.36-1.69-2.77-3.33-4-5.12-2.29-3.37-5.48-5.9-8.26-8.84-2.34-2.48-4.57-5.21-7.74-6.62-.08,0-.16-.12-.25-.17a2.89,2.89,0,0,0-1.53-.54.18.18,0,0,0-.07,0c-1.81-1.07-4.31-1.15-6.35-1s-4.08.53-6.11.86c-4.33.7-8.67-.57-13,.19a1,1,0,0,0-1.13-.11c-1.69.89-3.55,1.38-5.25,2.26a11.69,11.69,0,0,0-4,3.5c-1,1.38-1.9,2.88-2.88,4.29a24.94,24.94,0,0,0-2.46,4.32,36.78,36.78,0,0,0-2.61,10.54c-.45,4-.27,8.17-.83,12.21s-1.71,8.05-2.46,12.1a115.76,115.76,0,0,0-1.47,11.9,86.35,86.35,0,0,0,0,12.25A101.73,101.73,0,0,0,80,150.64c.82,4.54,1.74,9.07,2.47,13.63.18,1.16.41,2.3.61,3.45s.29,2.34.5,3.49a14.73,14.73,0,0,0,1,3.18c.23.55.5,1.08.76,1.61l-.24.13A15.08,15.08,0,0,0,86.72,179c1.62,2.35,3.42,4.63,5.2,6.87a37.59,37.59,0,0,0,8.84,7.75,1,1,0,0,0-.59,1c.74,8.38-1,16.88.33,25.21.63,3.94,2,7.71,2.86,11.6s.62,7.81,1.28,11.7a.88.88,0,0,0-.1.37c-.25,6,.5,12,.34,18-.17,6.2-1.67,12.28-2.68,18.38-.51,3.05-.93,6.12-1.15,9.21s-.21,6.35-.16,9.53c.1,5.77.18,11.54.27,17.31a104.22,104.22,0,0,1-.17,11l0-.35c-.1-2.08.15-4.14.18-6.22.06-4-.4-8-.65-12-.54-8.43-.39-17.05-2.68-25.25-1-3.71-2.41-7.31-3.6-11,.07-.25.14-.51.22-.76,0-.44,0-.88.08-1.32a30.49,30.49,0,0,1-3.08-5.32,1.16,1.16,0,0,0-2.1.27,23.21,23.21,0,0,1-2.65,5.77,59,59,0,0,0-3.12,6.33,32.63,32.63,0,0,0-2.73,10,41.07,41.07,0,0,0,1,11.1c.86,4.52,1.48,9.08,2.4,13.59a56.41,56.41,0,0,0,4.16,12.93c2,4.25,4.66,8.19,6.57,12.51,1.78,4,2.87,8.36,5.07,12.2,1.85,3.22,5,6,6.11,9.6,1.11,3.41-.94,6.76-2.87,9.45-1.19,1.66-2.79,3-3.86,4.72s-1.73,3.84-3.43,5.25c-2.85,2.35-7,1.83-10.26,3.31-3.8,1.73-6.64,5.73-11.07,6a10,10,0,0,1-5.34-1.66c-2-1.1-4-2.26-6-3.32-4.14-2.16-7.82-4.36-10.44-8.34-2.29-3.5-4.27-7-7.07-10.14-2.54-2.86-5.33-5.53-7.42-8.76-4.53-7-3.95-16.05-3.44-24,.27-4.1.44-8.25.86-12.34.46-4.49,1.89-8.8,3.2-13.09A58.69,58.69,0,0,0,41.66,293c.35-4.86.46-9.74.85-14.6.79-9.89,3.52-19.48,5.05-29.26A90.1,90.1,0,0,0,48.86,235a99.55,99.55,0,0,0-1.15-13.79c-1.34-9.43-3.61-18.75-3.78-28.32s3.2-18,6.77-26.58a82,82,0,0,0,4.45-13,104.16,104.16,0,0,0,2-12.92c.52-4.95,1.07-9.85,2-14.74s2.11-9.65,3.07-14.49C64.13,101.65,64.91,92,68,82.76c4.85-14.46,16.86-28.45,32.37-31.45a29.13,29.13,0,0,1,10.2-.12.57.57,0,0,0,.12.18,1.1,1.1,0,0,0,.71.29,13.22,13.22,0,0,0,3.32-.21.83.83,0,0,0,.44-.25c5.1-1.85,10.15-3.47,15.17-.35,4.85,3,8.86,7.37,12.84,11.41,7.51,7.62,13,16.76,17.62,26.33a265.53,265.53,0,0,1,12.87,32.93c1.85,5.6,3.08,11.38,5.06,16.94a73.11,73.11,0,0,1,2.56,8.18,42.55,42.55,0,0,1,.9,9.07c.16,12-2,24-1,36,1,11.2,9.52,19.64,12.57,30.23,1.63,5.71,1.35,11.69,1.29,17.56a58.11,58.11,0,0,0,2,16.65c3.22,11.37,8.42,22.19,9.71,34.05C208.11,302.28,206.82,315.08,204.19,327Z"/><path class="cls-2" d="M136.74,207.94a.28.28,0,0,0,0,.56A.28.28,0,0,0,136.74,207.94Z"/><path class="cls-4" d="M107.19,57.5a18.08,18.08,0,0,0-8-.31.66.66,0,0,0-.59-.12C83,61.06,75.06,76.93,70.75,91.13c-5.76,19-6.53,38.84-7.81,58.49-.4,6-.74,11.92-2.53,17.71-1.61,5.21-3.79,10.22-5.25,15.48a44.73,44.73,0,0,0-1.1,16.74c.61,6.17,1.77,12.29,1.79,18.52,0,13-.08,25.85-2.12,38.7-1,6.27-2.28,12.5-3.28,18.77a66.64,66.64,0,0,0-1,9.12c-.07,3.3.16,6.6-.06,9.89a43.84,43.84,0,0,1-1.9,8.9,87.27,87.27,0,0,0-1.89,8.92,134,134,0,0,0-1.9,18.32c-.17,5.39.11,10.84.38,16.23.24,4.76.71,9.74,2.46,14.22a20.88,20.88,0,0,0,3.24,5.6c.49.6,1.57-.22,1.09-.84-6.05-7.83-5.16-18.75-5.57-28.08-.55-12.29,1.33-24.46,4.5-36.3a35,35,0,0,0,1.34-8.12c.09-3.21-.09-6.43,0-9.64.24-6.33,1.79-12.69,2.9-18.92,1.07-6,2.1-12.07,2.69-18.17s.79-12.26.86-18.4A141.84,141.84,0,0,0,57,209.6c-.73-6-1.92-11.92-1.64-18,.52-10.93,7-20.32,8.55-31,.89-6,1-12.16,1.32-18.21.35-6.22.7-12.44,1.3-18.64a191.1,191.1,0,0,1,3.86-24.59c3.31-14.39,9.11-31.67,23.27-38.78a24.13,24.13,0,0,1,2.67-1.15.55.55,0,0,0,.42,0,17,17,0,0,1,10-.38A.71.71,0,0,0,107.19,57.5Z"/><path class="cls-6" d="M78.24,89c-3.5,8.2-4.51,17.18-5.53,26-.55,4.64-1.28,9.24-1.84,13.87-.62,5.15-.9,10.33-1,15.51s-.17,10.63-.13,15.94.56,10.74-.64,15.92c-1.1,4.79-2.94,9.32-3.66,14.21a101.82,101.82,0,0,0-.8,14.81c0,21.45-.66,42.86-2.35,64.24C60.6,290.54,55.41,311.13,54,332.2a87.5,87.5,0,0,0,0,15.27,57.9,57.9,0,0,0,3.07,13A54.2,54.2,0,0,0,62.16,372c2.06,3.16,5.07,5.52,7.68,8.2a13.36,13.36,0,0,0,4.45,3.3c.82.33,1.43-1.09.61-1.44a14.26,14.26,0,0,1-4.65-3.85c-1.34-1.46-2.85-2.75-4.21-4.2-2.78-2.92-4.34-6.51-5.82-10.21a68.86,68.86,0,0,1-3.88-12.89,65.41,65.41,0,0,1-.75-14.73c.83-20.62,6-40.75,7.94-61.25,2-20.87,2.62-41.89,2.66-62.85,0-5-.12-10.07.21-15.09A62.2,62.2,0,0,1,69.27,182a57.64,57.64,0,0,0,1.83-6.57,41.16,41.16,0,0,0,.52-7.36c0-5.17-.13-10.35-.14-15.52s0-10.37.33-15.55c.29-5,1-9.92,1.64-14.88,1.18-8.89,1.66-18,4-26.65a47.65,47.65,0,0,1,2-5.93C79.81,88.85,78.54,88.31,78.24,89Z"/><path class="cls-6" d="M82.83,371.35c-8.35-7.74-13.3-18.65-15.59-29.66A60.56,60.56,0,0,1,66,324.92c.53-7.19,1.75-14.36,2.92-21.46,2.41-14.57,4.88-29.19,4.74-44s-2-29.73.45-44.46c1.22-7.23,3.54-14.21,4.77-21.44a55.51,55.51,0,0,0,.73-11.15c-.12-3.73-.46-7.46-.58-11.2q-.09-2.79.06-5.58c.05-.9-1.34-.89-1.4,0-.48,7.59.7,15.19.13,22.79s-3,14.74-4.61,22.06a104.49,104.49,0,0,0-2.14,22.1c0,7.44.52,14.86.7,22.3A181,181,0,0,1,71,277.46c-.73,7.46-1.9,14.87-3,22.28-1.12,7.26-2.23,14.52-3.05,21.81a65.7,65.7,0,0,0,.25,17.1c1.67,11.15,6.09,22.57,13.81,31a37.92,37.92,0,0,0,2.86,2.81C82.49,373,83.54,372,82.83,371.35Z"/><path class="cls-6" d="M97.06,356.93c-2.27-3.47-6.41-5.06-8.55-8.62-4.63-7.69-7.3-16.36-8.85-25.15-.59-3.37-1-6.76-1.38-10.15a.66.66,0,0,0,.29-.65c-.55-3.74-1.08-7.49-1.33-11.26-.13-1.87-.19-3.75-.15-5.62s.24-3.71.34-5.57c.21-3.85.07-7.71.3-11.56a98.43,98.43,0,0,1,1.68-11.45c.68-3.79,1.06-7.59,1.46-11.42s.87-7.79,1.33-11.68c.91-7.81,1.79-15.62,2.51-23.45.81-8.82,1.33-17.68,1.32-26.55a.7.7,0,0,0-1.39,0c-.07,15.83-1.92,31.57-3.69,47.28-.44,3.89-.84,7.79-1.24,11.69s-.65,7.79-1.27,11.65S77,272.09,76.57,276s-.24,7.67-.35,11.51c-.06,2.15-.35,4.28-.48,6.42a57.91,57.91,0,0,0,0,6.18,71.66,71.66,0,0,0,.76,7.3.68.68,0,0,0-.07.36c.72,8.9,1.64,17.85,4.25,26.43a68.29,68.29,0,0,0,5.14,12.45A20,20,0,0,0,89.56,352c1.44,1.34,3.1,2.42,4.5,3.8,3.51,3.44,4,8.34,4,13,0,.92,1.29.87,1.39,0A18.23,18.23,0,0,0,97.06,356.93Z"/><path class="cls-4" d="M92.6,198.65C91,194,88.15,189.76,86.85,185a.67.67,0,0,0-1.3.35c1.15,4.23,3.46,8,5.09,12a30.62,30.62,0,0,1,1.9,12.26c-.07,4.34-.57,8.67-1.06,13-.54,4.82-1.14,9.64-1.61,14.47a119,119,0,0,0-.81,16.55.61.61,0,0,0,1.21,0c.23-4.93.49-9.86,1-14.77s1.07-9.74,1.6-14.61c.49-4.42,1-8.87,1.17-13.32A33.75,33.75,0,0,0,92.6,198.65Z"/><path class="cls-4" d="M100.18,255.78a145.58,145.58,0,0,1-1.69-16.4,49.33,49.33,0,0,1,.51-9c.14-.87-1.2-1.25-1.34-.37-1.73,10.88.7,21.88,2,32.68.35,3,.59,6.06.69,9.1a.63.63,0,0,0,1.26,0A101.19,101.19,0,0,0,100.18,255.78Z"/><path class="cls-7" d="M135.47,60.08A14.75,14.75,0,0,0,125.29,55c-4-.19-7.9,1.09-11.67,2.14a.78.78,0,0,0,.42,1.51c3.54-1,7.2-2.16,10.92-2.06s6.77,2,9.52,4.49A.7.7,0,0,0,135.47,60.08Z"/><path class="cls-6" d="M193.24,269.14c-2.58-8.25-3.47-17-6.87-25s-7.25-15.88-9.36-24.34A62.44,62.44,0,0,1,175.24,208a94.19,94.19,0,0,1,.47-12.79c.4-4.5.91-9,1.16-13.49a60.13,60.13,0,0,0-.26-12c-.55-3.83-1.52-7.58-2.15-11.39-.57-3.46-1.07-7.24,0-10.67.24-.79-1-1.13-1.24-.34a22.47,22.47,0,0,0-.33,9.31c.43,3.53,1.17,7,1.77,10.51a56.43,56.43,0,0,1,.73,10.94c-.12,4.55-.6,9.09-1,13.63s-.87,8.85-.88,13.3a62.94,62.94,0,0,0,1.1,12.18c1.61,8.51,5.07,16.44,8.61,24.29.91,2,1.85,4,2.61,6.13s1.38,4.11,1.95,6.2c1.13,4.19,2,8.44,3.3,12.6.31,1.05.65,2.08,1,3.11C192.3,270.24,193.49,269.93,193.24,269.14Z"/><path class="cls-4" d="M163.51,169.56c-1.7,6.48-3.7,12.88-5.79,19.24s-4.46,12.57-6.35,19c-3.5,11.85-4.06,24.36-3.68,36.64a187,187,0,0,0,1.77,19.34c.88,6.56,2.25,13.13,2.51,19.75a192.48,192.48,0,0,1-.69,20.09c-.2,3.1-.5,6.2-.62,9.3a23.33,23.33,0,0,0,.2,4.18c.23,1.63.71,3.22,1,4.84a60.92,60.92,0,0,1,.75,9.64c0,3.33.12,6.64.25,10a53.87,53.87,0,0,1-.27,10c-.47,3.17-1.4,6.25-1.9,9.42a23.26,23.26,0,0,0-.27,4.49.7.7,0,0,0,1.4,0,39,39,0,0,1,1.45-9.65,44.19,44.19,0,0,0,1.25-9.37c0-3.27-.18-6.54-.27-9.8s0-6.51-.23-9.75a79.17,79.17,0,0,0-1.51-9.33c-.58-3-.22-6,0-8.95.28-3.3.4-6.61.63-9.92s.46-6.57.54-9.86a74.35,74.35,0,0,0-.4-10c-.37-3.23-1-6.44-1.44-9.65-1-6.41-1.77-12.84-2.24-19.31a163.73,163.73,0,0,1-.2-19.44,95.82,95.82,0,0,1,2.34-17.94c1.51-6.32,3.88-12.41,6-18.55,2.12-6.34,4.12-12.71,5.88-19.16.44-1.6.86-3.19,1.27-4.8A.7.7,0,0,0,163.51,169.56Z"/><path class="cls-6" d="M167.72,343.42c-.49-6.59-1.49-13.12-1.71-19.73-.23-6.78-.4-13.56-.91-20.32-.52-6.95-1.64-13.82-2.21-20.76q-.44-5.24-.61-10.49c-.12-3.44-.08-6.89-.28-10.33-.41-6.93-1.62-13.83-1.4-20.79.1-3.11.39-6.23.58-9.33s.38-6.32.61-9.47a154.44,154.44,0,0,1,2.26-18.7c.29-1.47.61-2.92,1-4.36a.84.84,0,0,0-1.61-.45c-3,11.92-3.35,24.37-4.13,36.59-.21,3.21-.45,6.4-.34,9.62.11,3.42.47,6.82.81,10.21s.66,6.92.7,10.4.14,6.91.31,10.36c.35,6.91,1.25,13.71,2,20.58.75,6.66,1.08,13.35,1.31,20,.12,3.38.17,6.76.37,10.13s.55,6.53.9,9.79c.71,6.5,1.35,13.06.54,19.59s-3.32,12.67-6.24,18.57c-1.17,2.37-2.39,4.7-3.41,7.14a29,29,0,0,1-3.24,6.34,7.14,7.14,0,0,1-2.4,2.11c-1,.49-.12,1.93.84,1.44,4.11-2.11,5.44-7.46,7.23-11.33,2.6-5.66,5.67-11,7.42-17.06A55.66,55.66,0,0,0,167.72,343.42Z"/><path class="cls-4" d="M184.61,337.41c-.27-9.85-1.84-19.58-2.71-29.38-1.05-11.71-1.83-23.46-3.81-35.06-1.84-10.79-5.4-21.43-5.78-32.42-.05-1.35,0-2.69,0-4,0-1-1.51-1-1.56,0-.54,10.94,2.6,21.64,4.67,32.27,2.23,11.41,3.1,23,4.1,34.62.87,10,2.34,19.91,3,29.91.63,9.7.4,19.77-3.29,28.9-2,4.85-5.48,8.72-8.11,13.19a63.92,63.92,0,0,0-5.93,14.84c-.37,1.29-.73,2.59-1.08,3.88a.62.62,0,0,0,1.19.33,111.68,111.68,0,0,1,5.59-15.28c2.29-4.78,5.9-8.66,8.47-13.27C184.13,357.37,184.88,347,184.61,337.41Z"/><path class="cls-6" d="M197,321c-.05-4-.33-8-.38-11.95-.11-9.13,0-18.34-2.36-27.25a.74.74,0,0,0-1.43.4c2,7.86,2.05,16,2.08,24.05,0,3.91.11,7.81.28,11.72a80.22,80.22,0,0,1-.27,11.07,55.89,55.89,0,0,1-2.14,10.7c-1.09,3.61-2.58,7.07-3.54,10.74s-1.67,7.59-2.44,11.39a37.05,37.05,0,0,1-2.6,8.71,24.89,24.89,0,0,1-4.73,6.73,85.6,85.6,0,0,1-7.42,6.29c-.6.49.2,1.53.84,1.08,4.42-3.11,8.84-6.76,11.57-11.51,3.33-5.79,4-12.75,5.47-19.15.42-1.89.89-3.78,1.46-5.63s1.35-3.73,2-5.6a57.25,57.25,0,0,0,2.8-10.79A65.28,65.28,0,0,0,197,321Z"/><path class="cls-6" d="M189.09,238.16a23.55,23.55,0,0,1-.54-6.38,21.18,21.18,0,0,0-.82-6.53c-1.3-4-3.59-7.57-4.64-11.65a.79.79,0,0,0-1.53.42c1.05,4.08,3.36,7.66,4.61,11.66,1.3,4.18.13,8.7,1.65,12.83C188.11,239.29,189.32,239,189.09,238.16Z"/><text class="cls-8" transform="translate(223.26 183.72)">DHRITI <tspan x="0" y="133.47">SHAH</tspan></text></svg>